<?xml version="1.0" encoding="utf-8"?>
<!-- Generator: Adobe Illustrator 28.0.0, SVG Export Plug-In . SVG Version: 6.00 Build 0)  -->
<svg version="1.1" id="Calque_1" xmlns="http://www.w3.org/2000/svg" xmlns:xlink="http://www.w3.org/1999/xlink" x="0px" y="0px"
	 viewBox="0 0 1024 1024" style="enable-background:new 0 0 1024 1024;" xml:space="preserve">
<path d="M0,499.1l5.7,0c1.2-18.4,2.7-36.8,5.5-55c18.1-123.8,80-237,174.4-319.1C282.2,40.4,411.7-6.7,540.4,1.8
	c109.3,7.3,213.3,49.9,296.3,121.3c20,17.2,38.6,36.4,56.1,56.3c60.5,69,98.8,154.4,116.3,244c5.3,27.3,9.1,55.7,9.5,83.6L0,507
	V499.1z M490.5,41c-1.1,0-1.9-0.3-2.8,0.4C488.9,41.6,489.4,41.5,490.5,41c0.1,0.2,0.2,0.3,0.4,0.3c0.2,0,0.4,0,0.5-0.2
	c0.1-0.2,0.2-0.4,0.1-0.5c-0.1-0.3-0.4-0.4-0.7-0.3C490.5,40.4,490.4,40.7,490.5,41z M782.1,192c-0.2-1.7-0.4-3.2-0.9-4.8l-0.7-0.3
	c-0.5,0.5-0.8,0.5-0.8,1.3c-0.1,0.9,0.1,1.4,0.2,2.2c0.3,1.3,0.2,1.9-0.5,3.1c-0.7,1.1-1.4,1.5-1.2,2.8c1,0.6,1.4,0.8,2.6,0.4
	c1.1-0.4,1.6-1.1,2-2.1C782.6,193.7,782.4,192.8,782.1,192z M572.5,334.5c9.6-10.7,30.2-12.7,43.9-13.4c29.7-1.7,51.8,12.2,78,23.5
	c23.5,10.1,61.6,20.5,86.5,16c-1.7-2.6-3.3-5.1-5.1-7.6c-16.9,0.2-32.4,2.3-48.8-3.3c6.8,0,42.3,0.9,46.2-0.9
	c-0.4-1.1-0.7-1.8-1.6-2.5c-4.6-0.2-9.3,1-13.9,1.3c-10.7,0.6-22.3,0.5-32.9-0.6c-24.1-2.5-44.9-14.8-67.2-23.1
	c-9.9-3.7-20.2-5.8-30.1-9.7c-0.2,0-0.4,0.1-0.5,0.1c-5.8,1.5-12,0.4-17.9,1c-6,0.6-11.9,1.9-17.7,3.3c-19.1,4.5-25.5,10.7-39.4,24
	c3.5-1.6,7.6-3.8,11.5-4.3l-0.7,0.7c-2.8,2.6-6,4.7-9,7.1c-7.3,6.1-12.7,12.9-17.9,20.9c-1.9,2.9-4.3,6-5.3,9.3
	c-0.2-0.1-0.4-0.1-0.5,0c-0.2,0.1-0.3,0.3-0.3,0.5c0,0.2,0.1,0.4,0.3,0.5c0.3,0.1,0.6,0,0.7-0.2c0.1-0.3,0.1-0.6-0.2-0.7
	c2.6-2.7,4.6-5.9,7.2-8.6c7.4-7.8,16.9-14.5,26.2-19.8c18.8-10.6,38.1-14.9,59.6-15.8c7.4-0.3,15.1-0.4,22.3,1.2
	c7,1.5,13.4,5.5,20.4,7.4c-8.3-0.3-15.9-2.9-24.1-4c-21.7-2.9-48.1,1.1-67.9,10.5c-23,10.8-40.8,25.7-52.4,48.6
	c-1.5,3-3.5,6-4.6,9.1c0.8,0.8,2.2-0.3,3.7,0.4l0.6-0.6c2-13.8,15.9-25.9,26-34.7c13.7-12,29.6-19.2,47.2-23.4
	c27-6.5,50.9-6.4,77.6,1.6c11.4,3.4,22.5,7.8,33.8,11.3c13,4.1,26.6,6.9,39.9,9.9c13.6,3.1,26.6,6.6,40.6,7.5l-3.6-10.7
	c-11.4,1.2-23.5,0.6-34.9-1.2c-18-2.9-47.9-12.5-64.7-20c-17.5-7.8-35.8-18.4-55.3-19.5c-12-0.7-26,1-37.7,4.1
	C584.5,330.8,578.6,332.9,572.5,334.5z M346.4,335c25.3-12,62.1-21.4,89.9-14.6c16.7,4.1,29.8,13.5,41.7,25.6
	c3.2,3.3,6.6,6.5,9,10.5c-0.3,0.1-0.4,0.4-0.3,0.7c0.1,0.3,0.4,0.4,0.7,0.3c0.2-0.1,0.3-0.2,0.3-0.4c0-0.2,0-0.4-0.2-0.5
	c-0.2-0.1-0.4-0.1-0.5-0.1c-0.1-0.4-0.1-0.8-0.2-1.2c-2.6-12.2-19.3-25-29.5-31.5c-19.5-12.5-44.7-11.7-66.7-8.3
	c-3.1,0.5-6.6,0.3-9.6,1.3c-11.2,3.4-23,11.4-33.6,16.5c-15.2,7.3-33,12.5-49.3,16.6c-11,2.7-23.9,3-35.2,2.8c-3.5,0-9.2-1-12.3-0.4
	c-1.2,1-1.3,2.4-1.7,3.8l0.5,0.7c18.4-1,36.9,0.7,55.2-2.9c16.6-3.3,31.9-10.7,48-15.6c17.6-5.4,35.5-6.6,53.6-8.2
	c7.1-0.3,14.1-0.1,21.1,1.1c25.5,4.6,48.7,15.3,63.8,37.2c-4.7-12.3-17.4-23.1-28-30.5c-32.6-22.5-61.9-16.1-97.6-7.8
	c-6.1,1.4-12.1,3.5-18.4,4.6L346.4,335z M497.6,383.7c2.1,6.3,5.3,12.5,7,18.9l-0.3,0.2c-6.4-7.7-7.2-17.1-14.8-25.6
	c-10.9-12.1-26.2-20.4-41.5-25c-46.9-14.2-89,0.2-134.5,10.7c-7.6,1.7-15.2,2.9-22.8,4.3c-5,0.9-9.8,2.5-14.8,3.1
	c-7.3,0.9-21.2,0.3-28.8-0.2c-1.2-0.1-1.2,0.1-2-0.8c0.3-1.3,0.2-1.7,1.1-2.6c4.4-1,9.5-0.4,14-0.4c7.4,0,15.1-0.2,22.4-1.4
	c3.9-0.7,7.8-1.8,11.6-2.5c8.3-1.6,16.5-2.9,24.7-5c15.7-4,31.3-8.7,47.2-11.8c24.1-4.7,50.5-5.6,74.6-0.5c21.1,4.5,43,17,54.8,35.3
	c-0.1,0.1-0.2,0.2-0.2,0.4c0,0.1,0.1,0.3,0.2,0.3c0.1,0.1,0.3,0,0.4-0.1c0.2-0.1,0.2-0.4,0.1-0.5c-0.1-0.2-0.4-0.2-0.5-0.1
	c-0.3-3.3-1.9-7.2-3.8-9.9c-5-7-21.7-18.8-29.6-23.1c-13.9-7.6-31.4-12.5-47.3-13c-6.4-0.2-12.7,0.4-19.1,0.8
	c-6,0.4-12.1,0.5-18.1,1.4c-8.4,1.2-17.2,3.8-25.3,6.2c-15,4.6-29.5,10.8-44.8,14.4c-14.9,3.5-45.2,4.9-59.9,2.3
	c-3.1,6.5-5.5,13.5-8.6,20.1c25.3-1.9,49.1-7.6,73.9-12.2c16.4-3,32.8-4.9,49.2-7.4c23.6-3.6,37.2-7.7,61.8-4.8
	c24.2,2.9,45.3,14.5,61.8,32.4c4.9,5.3,9.2,11.2,13.7,16.9c2.9,0.1,5.6,0,8.4-0.3c-1.1-2.4-2.1-4.8-3.2-7.1
	C502.5,392.5,500.5,387.9,497.6,383.7z M630.6,391.1c-0.1,0.1-0.1,0.2-0.1,0.4s0.1,0.2,0.3,0.3c0.1,0,0.3,0,0.4-0.1
	c2,2.5,3.1,2.9,6.2,3.3c6.2,0.8,12.5,0.6,18.7,1.1c10.2,0.8,20.5,3.3,30.6,4.6c8.6,1.1,15.3,1.1,24.2,2.8c-0.1,0.2-0.1,0.4,0.1,0.6
	c0.2,0.1,0.4,0.1,0.6-0.1c0.1-0.1,0.1-0.3,0.1-0.4c-0.1-0.1-0.2-0.2-0.3-0.3c-0.1,0-0.3,0-0.4,0.2c-8.3-5.5-17.5-3.6-25.7-8
	l-0.1-0.7l1-0.7c2.2-0.5,3.9,0.6,6,1.2c0.7-0.8,1.2-1,2.2-1.3c3.6,0.3,13.2,5.1,16.5,7.1c2.5,1.5,4.9,2.6,7.8,3.2
	c-1.3-1.7-5.5-3.8-7.4-5.3c4.9,1.1,9.2,3.8,14,4.7c8,1.4,16.4,1.7,24.5,2.2c18.2,1.2,36.3,1.6,54.5,2.5c7,0.4,13.9,2,20.9,2.6
	c-5.8-5.2-11.2-11.1-16.5-16.8c-4.7-0.5-9.4-0.4-14.1-0.9c-14.8-1.5-30.3-4-44.8-7.4c-10.8-2.5-21.6-5.2-32.2-8.4
	c-34.5-10.2-75.5-25.1-111.9-18.6c-27.9,5-55.6,23.7-71.7,46.7c6.2,1.3,15,4.4,19.5,9.1c1.6,1.7,3.1,4.3,5.1,5.4l1.1-0.5
	c0.3-1.8-0.9-3.1-1.1-5c1.1-1,2.2-1.9,3.2-3c7.9-8.9,20.8-15.4,32.2-18.4c7.3-1.9,19.4-5.4,26.9-3.5c4,1,7.9,3.6,11.4,5.7
	c-0.2-0.2-0.4-0.4-0.5-0.6c-3.2-3.6-7.9-5.2-11-8.8l0.5-0.2c6.1,2.1,15,4.4,20.4,7.6l-0.5,0.4c-3.5-0.1-6.7-1.3-10.1-2.1
	c0.1-0.2,0.1-0.4,0-0.5C630.9,390.9,630.7,390.9,630.6,391.1z M205.3,408.6c9.5-1.6,19.4-1.6,29-1.9c8.6-0.3,17.1-0.9,25.7-1.5
	l83.7-5c18.9-1,37.1-2.9,56.1-1.9c16.5,0.9,31.9,4.7,48.1,7.5c-0.1,0.2-0.1,0.4,0.1,0.6c0.2,0.1,0.4,0.1,0.6-0.1
	c0.1-0.1,0.1-0.3,0.1-0.4c-0.1-0.1-0.2-0.2-0.3-0.3c-0.1,0-0.3,0-0.4,0.2c-8.6-4.6-19.6-7.5-29-10.1c-3.9-1.1-8-1.4-11.7-3.1
	l-0.2-0.6l0.7-0.7c0.8-0.2,1.5-0.3,2.3-0.2c13.3,1.7,50,13.6,58,24.4c-0.3,0.3-0.6,0.8-1,0.9c-0.4,0.1-17.3-3.8-19.6-4.3
	c-22.8-4.2-53.9-1.4-77.8-1.3l-175.2,2l-2.4,4.4c16.9,0.3,34-1.2,50.9-1.5l124.3-2c33.3-0.5,68.3-2.6,101.1,4.2
	c6.9-5.6,9.3-8.8,18.3-11.5c3.3-0.9,6.7-1.3,10.1-1.9l-1.3-1.5c-7.4-8.5-15.1-17.1-24-24.1c-24.4-19.2-53.8-22.8-83.8-19.3
	c-8.3,1-16.4,3.3-24.7,4.5c-10,1.5-20.1,2.3-30.1,3.6c-11.8,1.6-23.8,3.9-35.5,6.4c-20.3,4.3-39.6,9.9-60.7,8.4
	c-2,2.5-4.4,4.7-6.6,7c5.6-0.8,11.2-0.9,16.8-1.6c6.8-0.9,13.8-2.8,20.7-2.5c-10.1,4.1-19.6,6.6-30.5,7.5c-4.6,0.4-10,0.2-14.4,1.3
	c-5.3,1.3-10.2,4.9-15.4,6.8l-0.7,0.3C206.1,403.8,205.7,406.2,205.3,408.6z M567.6,409.4c-0.1-0.1-0.2-0.2-0.4-0.1
	c-0.1,0-0.3,0.1-0.3,0.2c0,0.1,0,0.3,0.1,0.4c0.1,0.2,0.4,0.2,0.5,0.1C567.7,409.8,567.7,409.6,567.6,409.4c5.5-0.7,11-3,16.4-4.1
	c15.5-3,31.3-4.4,47.1-4.2c15.1,0.2,30.2,1.7,45.2,2.9c8.1,0.7,16.8,1.9,24.9,1.3l-2.5-0.7c-4.3-0.2-8.3-1.1-12.6-1.8
	c-3.3-0.5-6.6-0.5-9.9-0.9c-4.3-0.6-8.6-1.5-13-2c-8.2-0.9-16.5-1.6-24.8-2c-5.6-0.3-11.2-0.2-16.8-0.6c-3.9-0.3-7.7-1-11.5-1.5
	C598,394.5,577,401.9,567.6,409.4z M404.9,425.1c-3,2.3-10.5,14.5-11.1,18.2C396.3,440.8,404.1,428.4,404.9,425.1
	c0.2,0.1,0.4,0.1,0.6,0c0.1-0.2,0.1-0.4,0-0.6c-0.1-0.1-0.3-0.1-0.4-0.1c-0.1,0-0.2,0.2-0.3,0.3C404.8,424.8,404.8,425,404.9,425.1z
	 M261,426.5c-1.5,1.6-2.3,3.2-2.5,5.4c-0.2-0.1-0.4-0.1-0.5,0.1c-0.1,0.2-0.1,0.4,0.1,0.5c0.1,0.1,0.3,0.1,0.4,0.1
	c0.1-0.1,0.2-0.2,0.2-0.3c0-0.1,0-0.3-0.2-0.4C260,430.8,260.5,428.2,261,426.5c0.3,0.1,0.6,0,0.7-0.2c0.1-0.3,0-0.6-0.2-0.7
	c-0.3-0.1-0.6,0-0.7,0.2C260.6,426,260.7,426.3,261,426.5z M281,426.5c-0.1-0.1-0.3-0.2-0.4-0.1c-0.1,0-0.3,0.2-0.3,0.3
	c0,0.1,0,0.3,0.1,0.4c-2.3,1.9-4.5,4.8-5.2,7.7c2.3-1.8,4.3-4.9,5.2-7.7c0.2,0.2,0.4,0.1,0.6,0C281.2,426.9,281.2,426.6,281,426.5
	l0.6-0.9L281,426.5z M362.5,426.5l-0.4,0.9c-1.1,1.4-2.4,3.2-2.3,5l0.9-0.2c0.6-1.6,1.1-3.1,1.4-4.8L362.5,426.5
	c0.2,0.1,0.4,0.1,0.5-0.1c0.2-0.1,0.2-0.3,0.2-0.5c0-0.2-0.1-0.3-0.3-0.4c-0.3-0.1-0.6,0-0.7,0.3
	C362.1,426.1,362.2,426.4,362.5,426.5z M371,426.5c-1.4,2.3-3.2,6-2.9,8.7c2.1-1.7,2.7-5.3,2.9-7.9C371,427,371,426.8,371,426.5
	c0.2,0.1,0.4,0.1,0.5-0.1c0.1-0.1,0.2-0.3,0.2-0.5c0-0.2-0.2-0.3-0.3-0.4c-0.3-0.1-0.6,0-0.7,0.3C370.6,426.1,370.7,426.4,371,426.5
	z M251,427c-1.1,1.7-1.7,2.9-1.6,5C250.5,430.3,250.9,429,251,427c0.2,0.1,0.4,0.1,0.5,0c0.2-0.1,0.3-0.3,0.2-0.5
	c0-0.2-0.1-0.4-0.3-0.4c-0.2-0.1-0.5,0-0.7,0.2C250.7,426.6,250.8,426.9,251,427z M426.5,428.5l-0.5,1c-0.3-0.1-0.6,0-0.7,0.2
	c-0.1,0.3,0,0.6,0.2,0.7l-0.6,1.4l-0.4,0.7c-0.2-0.1-0.4-0.1-0.5,0c-0.2,0.1-0.3,0.3-0.2,0.5c0,0.2,0.1,0.4,0.3,0.5l-0.7,1.3
	l-0.3,0.6c-0.1-0.1-0.2-0.1-0.3-0.1c-0.1,0-0.2,0.1-0.2,0.3c0,0.1,0,0.2,0.1,0.3c0.1,0.1,0.4,0.1,0.5-0.1c0.1-0.1,0.1-0.4,0-0.5
	l0.3-0.6l0.7-1.3c0.3,0.1,0.6,0,0.7-0.2c0.1-0.3,0-0.6-0.2-0.7l0.4-0.7l0.6-1.4c0.3,0.1,0.6,0,0.7-0.2c0.1-0.3,0-0.6-0.2-0.7
	L426.5,428.5c0.2,0.1,0.4,0.1,0.5,0c0.2-0.1,0.3-0.3,0.3-0.5s-0.1-0.4-0.3-0.4c-0.2-0.1-0.5,0-0.7,0.2
	C426.2,428.1,426.3,428.4,426.5,428.5z M377.5,431c-0.3-0.1-0.6,0-0.7,0.2c-0.1,0.3,0,0.6,0.2,0.7l-0.5,1c-0.1-0.1-0.3-0.1-0.4-0.1
	c-0.1,0.1-0.2,0.2-0.2,0.3c0,0.1,0,0.3,0.1,0.4c0.2,0.1,0.4,0.1,0.5-0.1c0.1-0.2,0.1-0.4-0.1-0.5l0.5-1c0.3,0.1,0.6,0,0.7-0.2
	C377.9,431.5,377.8,431.1,377.5,431c1.9-1,4.1-6,4.8-8.1C379.9,424.9,378.5,428.1,377.5,431z M289.6,431.9c-0.2-0.1-0.4-0.1-0.5,0.1
	c-0.1,0.2-0.1,0.4,0,0.5c0.1,0.1,0.3,0.1,0.4,0.1c0.1,0,0.2-0.2,0.3-0.3C289.7,432.2,289.7,432,289.6,431.9c2.2-1.7,3.3-3.9,4.3-6.4
	C292,427.1,290.5,429.7,289.6,431.9z M138.6,455.8c-1.5,6.4-2.3,30.2-0.4,36.1c1.7-6.6,0.3-15.7,0.1-22.5
	C138.2,464.9,138.4,460.4,138.6,455.8c1.2-1.7,0.9-5.9,1-8C138.6,450.4,138.3,453.1,138.6,455.8z M512.9,8.2
	c-35.3,0.3-70.4,4.1-104.9,11.4C312.2,41.5,224.9,91,157.1,162.1C90.2,231.3,44.2,317.9,24.2,412c-6,28.8-9.8,58.1-11.2,87.5
	c3.8-0.1,7.5-0.2,11.3-0.1C31.1,389.8,66,290.5,135.2,204.4c17.6-22.2,37.1-42.8,58.3-61.6C283,63.7,391.9,20.3,511.7,19.1
	C620.5,19.9,725.7,57.6,810.3,126c12.7,10.1,25.2,20.3,36.7,31.8c72.7,72.5,117.9,154.1,140.8,254c5.1,22.1,8.6,44.5,10.4,67.1
	c0.6,6.7,1.3,13.6,1.3,20.3l0,0.5l11.6,0c-6-138.7-67.1-269.3-169.8-362.7C766.8,69.7,673.8,26.4,574.3,12.6
	C554,9.6,533.5,8.1,512.9,8.2z M492.5,40.7c0,0.3,0.3,0.5,0.5,0.5c0.3,0,0.5-0.2,0.5-0.5c0-0.2-0.1-0.4-0.3-0.5
	c-0.2-0.1-0.4-0.1-0.6,0C492.5,40.3,492.4,40.5,492.5,40.7z M537,44.2c-9.6,0.9-58.9,8-63,13.7c-0.5,0.7-0.8,1.3-1,2.2
	c0.2,0.7,0.2,1.1,0.9,1.5c0.7,0.4,1.2,0.4,2,0.4c5.8-0.1,11.5-0.2,17.3-0.9c9.2-1,39.3-5.8,45.5-11.7c0.5-0.5,0.8-1.1,1.1-1.8
	c-0.1-1.5-0.2-1.6-1.1-2.8C538.2,44.6,537.5,44.3,537,44.2z M464.3,46.2c-21.4,1.8-43,6.3-63.7,11.8
	c-92.3,24.6-174.8,76.9-236.4,149.9C94.5,289.6,53.9,392.2,48.7,499.5l69,0l10.2,0l0-50.3c0-8.2-1.2-18.4,0.2-26.3
	c0.7-4.1,2.6-7.9,5.5-10.9c8.2-8.2,25-11.7,36.2-13.3c8.9-1.2,18.1-1,25.9-5.8c3.9-53,9.2-105.9,16.1-158.6
	c2-14.8,4.2-29.7,6.8-44.4c1-5.6,1.7-11.7,3.4-17.1c1.4-4.3,4.2-7.9,7.6-10.8c3.3-2.8,7-5,11.3-6c6.3-1.4,13.9-0.6,20.3-0.5
	l30.3,0.4c1.1-3.4,3.3-12.5,6.6-14c1.4-0.6,39.7-0.6,44.1-0.6c4.6,5.2,6.6,9.6,7.8,16.5c25.7,0.6,51.2,0.2,76.8,0.2
	c0-2.8-0.4-6.9,1.6-9.2c1.9-2.1,21.3-0.9,25.6-1c0.1-3-0.5-8.1,2.2-10.1c2.7-2,10.1-0.8,13.6-1.1c1.8-4.7,4.6-6.6,8.7-9.2
	c-3.6-1-7.5-1.8-9.6-5.3c-1-1.7-1.2-3.6-0.6-5.4c1.3-4.2,5-6.3,8.5-8.4c-3.2-1.5-7.1-3.1-8.4-6.7c-0.6-1.8-0.2-3.6,0.7-5.2
	c2-3.2,5.7-5.2,8.8-7.2c-3.8-1.3-7.4-2.1-9.4-5.9c-0.9-1.7-1-3.7-0.4-5.5c1.1-2.8,3.7-4.8,6.4-5.8c1.1-0.4,2.3-0.8,3.4-1.1
	c-3.9-1.4-8.6-2.8-10.3-7c-0.8-1.8-0.7-3.8,0.1-5.6c1.4-3,4.1-4.8,6.9-6.3c-1.9-2-3.6-4-5.2-6.3C468,46,466.1,46,464.3,46.2z
	 M556.6,46.1c1.3,2.5,2.3,4.6,1.4,7.4c-0.8,2.6-2.9,4.6-4.9,6.3c2.6,1.4,5.2,2.9,6.1,5.9c0.6,1.9,0.2,3.7-0.8,5.4
	c-1.5,2.5-3.9,4.1-6.3,5.6c3,2.3,7,5.3,7.4,9.5c0.2,2.2-1.1,4.2-2.6,5.7c-1.4,1.4-3.1,2.6-4.8,3.7c2.7,2.2,7.1,5.2,7.2,9.1
	c0,2.3-1.8,4.8-3.6,6.2c-0.4,0.3-0.7,0.6-1.1,0.9c-1.1,0.9-2.2,1.8-3.2,2.8c3.1,2,6.8,4.1,7.8,8c0.5,1.9-0.1,3.8-1.2,5.4
	c-1.4,2.1-4.2,4.4-4.4,7c0.8,1.4,2.2,2,3.7,2.4c4.5,1.1,9.4,0.4,14,0.5c0.8,2.8,1.6,5.6,2.1,8.5c6.2-0.1,18.1-2.1,22.6,2.6
	c2.1,2.1,2.4,5.1,2.9,7.9l80.5,0c0.3-5.8,0.5-10.2,3-15.6l43.1,0c3.9,4.1,7.1,9.8,9.2,15c8.4-0.3,16.7-0.4,25.1-0.5
	c13.9-0.1,28.7-0.8,39.6,9.6c3.8,3.6,6.5,8.8,7.9,13.9c3.7,14.1,4.1,30.7,5.7,45.3c4.6,41.2,7.7,82.5,11.6,123.7
	c1.4,14.4,1.9,32.6,4.2,46.3c16.6,1.1,55.5,6.4,66.6,18.9c2.3,2.6,3.9,5.8,4.5,9.2c1.1,7.1,0,14.9,0,22.1c0,18.1,0,36.3,0.3,54.4
	l24.3,0.1l50.2-0.1c-1.3-19-2.9-38.2-6.2-57C950.5,336.1,896.9,234,815.3,162.7C756.1,110.9,687,72.5,609.9,55
	C592.4,50.9,574.5,48.5,556.6,46.1z M535.6,63.1c-10.5,2.2-21,4.2-31.6,6c-7.4,1.3-15.4,2.3-22.6,4.6c-2.3,0.8-5.8,2.1-7.2,4.2
	c-0.4,0.6-0.2,0.6-0.2,1.4c2.2,2.4,4.7,2.2,7.7,2.6c9.7-0.1,52.7-6.3,58.4-12.4c0.8-0.9,1.6-2.1,1.5-3.4c-0.1-1.2-0.7-2.1-1.7-2.8
	C538.7,62.5,537,62.9,535.6,63.1z M537.3,82.7c-13.6,2.3-53.7,6.6-62.9,14.1l-0.5,1.2c0.5,1.1,1.5,1.6,2.6,2
	c0.6,0.2,1.1,0.3,1.7,0.4c3.1,0.2,6.1,0.3,9.3,0.1c9.3-0.8,46.2-6.1,52.3-11.7c0.6-0.6,1.1-0.9,1.1-1.8c0.1-1.5-0.3-2.6-1.1-3.8
	C538.7,82.5,538.6,82.6,537.3,82.7z M536.5,101.7c-11.4,1.9-55.9,7.7-62.3,15.1c-0.1,0.7-0.3,1.1,0.2,1.6c1.5,1.6,4.7,1.2,6.7,1.2
	c13.9,0.1,45.9-5.7,58.9-10.6l0.5-0.2c0.7-1.6,1.7-3.5,1.2-5.3c-0.3-1.1-0.9-1.7-2-2C538.9,101.2,537.5,101.4,536.5,101.7z
	 M537.8,120.7c-11.6,2.3-23.1,4.5-34.7,6.5c-6.5,1.1-13.8,1.4-20,3.3c-2.1,0.6-4.5,1.6-5.8,3.4c-0.6,0.8-0.7,0.9-0.6,2
	c1.9,1,4.8,0.5,6.9,0.5c1.6,0,3.1,0,4.6-0.2c4.6-0.7,10,1.2,14.8,1c6.6-0.2,34-5.8,37.4-10.7c0.8-1.2,0.7-1.6,0.6-2.9
	C540.3,122.3,539.2,121.3,537.8,120.7z M462.5,144.2l-1.2,0.6c-2.5,8-0.3,42.1,2.4,49.3c0.1,0.2,0.2,0.4,0.2,0.7
	c0,0.1,0.1,0.3,0.2,0.4c0-6,0-11.9-0.2-17.9c2.2,6.8,3,13.8,3.6,20.9c2.3-9.1,0.6-18.7,2.8-27.8c1.1,4.2,1.7,8.7,3.2,12.8
	c0.7-1.3,1.5-2.7,2.1-4.1c0.5-2.8,1-5.5,1.3-8.3c3.3,12.6,4,25.7,5.7,38.6c0.6-7.8,0.9-15.6,1.6-23.3c0.5-5,1.5-10,1.9-15
	c0.6-8.8,0.7-17.6,1-26.4C479.1,144.7,470.3,143.3,462.5,144.2z M488.9,144.6c1.7,8.9,1.1,48.4,3.1,51.3c1.2-1.6,1-15,1.8-18.5
	c2.2,9.8,1.7,19.9,3.2,29.8l0.1-0.6c1.4-9.3,1.6-19.2,2.2-28.6c0.2-2.6-0.1-5.6,0.7-8.1c1.3,3.1,2.7,6.4,3.3,9.7l2.3,9.4
	c1.3-5.8,1.3-11.7,2.4-17.6c1.8,11.7,2.3,23.1,2.8,35c1.6-7.2,1.6-14.8,2.4-22.1c1.4-12.9,3.6-25.8,3.5-38.9
	C507.4,145.1,498.1,145,488.9,144.6z M518.3,145.6c-2.2,20.1,3.9,43.2,8.5,62.8c0.8-10.6-0.2-21.3,0.4-32c1,5,2.4,9.8,3.9,14.7
	c0.5-3.8,1.5-18.3,3.4-20.6c0.2,0.9,0.4,1.7,0.5,2.6c0.7,5.4,1.5,10.8,1.8,16.3c0.4,5.6,0.2,11.5,1.5,16.9l2.2-33.7
	c0-0.7,0.1-0.6,0.5-1.4c1.6,2,1.7,4.4,2,6.9c0-5.6,1.4-28.5-0.6-32.5C535,144.3,526.1,146.1,518.3,145.6z M547.7,145.8l-1.4,0.4
	c-2.1,4-0.2,40.3,1.1,46.7c2.2-7.4,2.3-15.2,4.2-22.7c-0.1,7.1,0.3,13.5,2,20.5c2-5.3,1.9-10.3,3-15.6c0.2-1.5,0.1-3.1,1.1-4.3
	c1.4,10,1.8,20.4,3.7,30.3c0.8-8.3,2.9-16.8,3.1-25.1c0.2-6,0.1-12.1,0-18.1c-0.1-3.9-0.5-8-0.1-11.8
	C558.9,146,553.2,145.3,547.7,145.8z M302.1,148.4c-4.8,14.9-4.2,27-2.6,42.4c2.4-10.1,8-19.9,9.6-29.6c0.9,2.8,1.6,5.4,2.1,8.3
	c1,5.3,1.8,10.6,2.5,16c1.3-5.7,2-11.7,3.5-17.4c0.3,2.1,0.4,4.3,1.4,6.3l0.4-0.5l-0.7,0c0.3-0.4,0.8-0.7,1-1.2
	c1.2-2.7,1-20.7,0.6-24.2C313.9,148.2,308,148.5,302.1,148.4z M322,148.4c1.2,14.3,2.9,28.2,4.9,42.4c2.1-7.9,4.3-15.6,5.5-23.8
	c0.5,3.5,1,7.1,1.9,10.6l2.4-7l1,0c1.7,3,1.2,8.3,2,11.9l0.5-2.8l0.6-0.3c1,1.9,1.6,3.9,2.4,5.8c0.7-7.3,1-29.2-4.3-34.8
	C336.4,147.8,325.8,148.5,322,148.4z M686.4,149.4c-3.2,16.7-2.8,30-1.1,46.8c2.4-7.4,3.4-14.7,4.2-22.3c0.3-3.3,0.4-7,1.1-10.2
	c0.4,6.9,0.5,13.5,3.7,19.8c0.8-7.1,1.5-14.4,3.1-21.4c1.4,4.8,3,9.5,4,14.4c1.3,6.4,1.7,12.7,3.9,18.9c0.9-5.1,1.5-10.2,2.1-15.3
	c0.5-5.3,0.8-10.6,1.9-15.8c1.1,4.5,2.1,9.1,3.8,13.4c0.3-2.8,0.8-17.5,2.3-18.9c0.5,8.6,2.5,16.3,3.6,24.8c0.4,3.2-0.2,8,1,10.7
	l0.2,0c0-0.8,0-0.9,0.2-1.7c0.4-1.1,0.2-3,0.3-4.2c0.4-6.9-0.3-15.3,1.8-21.9c0.4,1.1,0.6,2.1,0.7,3.2l0.5-0.4
	c0.8-6.4,0.5-12.9-0.9-19.2C710.9,149.4,698.2,151.5,686.4,149.4z M583.7,154.2c-4,0.7-7.6,0-11.6,0.1c-2.4,11.9,1.4,23.6,3,35.5
	c0.6-4.8,1-17,3.4-20.6c2.1,3.1,0,8.3,3.3,11.1c0.7-0.7,0.7-0.9,1-1.9l1.8-6c-0.1,1.5-0.7,5.5,0.1,6.5c0.2-1.1,0.3-2,1-2.9
	c1.7,1.2,1.9,3.4,2.2,5.4c0.6,4,0.1,9.1,1.3,12.8c1.2-13.2,4.7-26.9,2.1-40.2C588.8,154.1,586.2,154,583.7,154.2z M435.2,154.8
	l-1.3,0.4c-2.2,6,2,30.8,2.8,38.5c1-3.2,1.9-6.2,2.3-9.5c0.2-1.6,0.1-5.4,0.6-6.6c0.3-0.6,1.5-1.2,1.8-1.8c0.9-1.9,0.6-6.6,0.9-8.9
	l2.3,7.5c1.5,2.9,2.6,5.7,3.6,8.8c1.4-4.7,1.7-9.5,2.7-14.3c0.4,3.7,0.7,7.3,0.9,11c2.9-8.1,3.2-16.1,1.8-24.6
	C447.6,154.7,441.4,154.2,435.2,154.8z M252.2,161.7c-7.7,0.1-14.8,0.1-20.7,6c-1.8,1.8-4,4.7-4.5,7.2c-0.5,2.3,0.5,7-1.9,7.9
	c0.6,2.1,1.9,1,1.7,3.8c-0.7-0.1-1-0.2-1.7-0.5c-0.7,1.2-0.6,1.8-0.5,3.1c1.6,1.8,2.4-0.3,3.4,3.5l1,0.5l0.7-0.4c0-0.1,0-0.3,0-0.4
	c-0.3-5.1,4-13.6,7.4-17.3c0.8-0.8,1.6-1.6,2.4-2.3c2.3-1.6,4.3-2.8,7.1-3.4c5.8-1.3,12.2-0.7,18.2-0.6c8.4,0.2,16.8,0.4,25.2-0.2
	c0-2.2,0.1-4.5,0-6.7C277.4,161.9,264.8,161.5,252.2,161.7z M763.2,161.8c-7.3,0.2-18.3-0.7-25.1,1.3l-0.3,0.8
	c0.5,1.1,0.8,2.2,1.8,2.9c4.8,1,14.2,0.9,19.3,0.6c4.2,0.1,23.7-1.6,26.9-2.9l0-0.6C779,161.1,770.4,161.3,763.2,161.8z
	 M369.7,162.1c-2.6,2.9-2.3,6.2-2,9.9c0.4,5.8,1.6,11.6,2.8,17.4l1.6-7.6c0.3-1.2,0.7-3.8,1.6-4.6c0.3,2.1,0.5,4.3,0.9,6.4
	c1.1-7.2,1.1-14.4,1.1-21.7C373.7,162,371.8,162.2,369.7,162.1z M392.8,162.8c-3.1,1.7-6.7,0.2-10.1,0.9c0.1,10.3,0.7,20.5,2.4,30.8
	c0.6-2.5,1.3-4.9,1.4-7.4c0.4-3.6,0.8-7.2,1.7-10.8c2.2,4.2,3.7,7.7,4.3,12.4c1-6,3.9-19.3,1.8-24.5
	C393.9,163.8,393.2,163,392.8,162.8z M404.6,162.6c-2.5,2.6-2.6,5.6-2.5,9.1c0,2.4-0.1,6.1,1.1,8.2l0.9,0.2c1.5-1.8,1.8-4.2,2.4-6.4
	c0.6,4.6,0.4,9.8,1.5,14.3c1.9-1.7-0.2-3.7,3.2-4.8c1.4-3.5,2.8-14.3,1.4-17.7c-0.3-0.8-0.6-0.8-1.3-1.3c-1.4,0.1-2.8,0.2-4.2,0.4
	l-0.3-0.3C406.1,163.4,405.7,163.1,404.6,162.6z M359,163.5c-1.9,0.7-3.9,1.4-5.9,1.9c-0.1,7.9,0.8,15.1,1.6,23l1.3-7.3
	c0.2-1.2,0.2-2.6,1-3.6c0.9,2.1,1.1,4.4,1.6,6.6c1.5-4.4,4.2-14.9,2.6-19.3c-0.2-0.5-0.4-0.7-0.8-1.1
	C360.1,163.5,359.6,163.4,359,163.5z M598.9,163.5c0,3.1,1.5,21.9,2.9,23.7c1.4-5.1,1.3-11.4,1.5-16.7l0.5-0.9
	c1.7,1.7,2.7,8.5,3.4,11.2c1.1-5.7,1.6-11.4,1.8-17.3L598.9,163.5z M616.2,163.5c0.1,5.9-0.3,14.3,1.9,19.8c0.8-0.5,1.1-2,1.4-2.9
	c0.7-2.9,0.8-6.3,1.2-9.3c0.4,4.5,0.7,8.8,1.8,13.2l0.3,2.7l0.4,0.2c2-4.8,3-8.7,3.3-13.8c0.1-1.4-0.2-4.4,0.2-5.6
	c0.5-1.3,1.4-1.3,1.4-2.9C626.1,163,619,163.5,616.2,163.5z M635.8,163.8c-0.9,5.7-1.4,10.7,0.4,16.3c0.9,3,1.9,5.3,2.4,8.4
	c0.2-2.3,0.3-9.4,1.9-10.7l0.6,0.3l1.1,7.1c2.7-7.4,3.5-13.2,3-21.1L635.8,163.8z M652.4,163.7c-0.1,3.8-0.2,7.6,0.2,11.4
	c0.6,5.7,2.1,11.1,1.8,16.9c2.1-6.7,3.6-14.7,4.1-21.7c0-1.3-0.2-1.7,0.6-2.8c2.3,2.3,2.8,11.3,3.4,14.6c0.5-3.7,3-13.5,1.1-16.4
	c-0.7-1-1.9-1.4-3.1-1.6C658,163.8,655,163.8,652.4,163.7z M674.3,164c-0.7,6.5-0.8,14.5,0.7,20.8l0.4,0l0.2-0.9
	c1.5-5.7,4.1-13.7,2.2-19.6C676.6,164.1,675.5,164,674.3,164z M422.4,164.5c-1.3,8-0.8,14.2,2,21.8c0.1-2.4-0.2-6.1,0.8-8.1l0.6,1.3
	c0.4,1.5,0.4,3.1,1.6,4.1c1.9-2.4,1.6-15.4,1.6-18.9C426.8,164.7,424.6,164.5,422.4,164.5z M780.9,182.6c-1.4,0.2-2.7,0.2-3.8,1.1
	c0.5,1.1,0.2,0.7,0.9,1.2c1.5-0.3,2.8-0.5,4.1-1.4l0-0.6L780.9,182.6z M776.4,188.3l-0.1,1.9l0.7,0.5l0.5-1
	C777.1,189.3,776.8,188.7,776.4,188.3z M224.1,192.3c-1.1,3.4-2.6,11.8-1.5,15.2c1.1-0.3,1.2-0.8,1.9-1.6c0.8-0.4,1.5-0.9,2.3-1.3
	c-1.3-0.9-2.1-1.1-2.4-2.9C223.9,198.9,225.2,194.8,224.1,192.3z M227.2,196.8c-0.5,1.5-1.1,2.5-0.7,4.1l0.6,0.6
	c0.7-1.4,1-2,0.7-3.7L227.2,196.8z M777.9,200.5c0,0.9-0.2,2.6,0.5,3.2c1.3,1.3,3.7,1.8,5.3,2.6c-0.1-1.8,0.1-3.6-1-5.2
	C781.2,200.3,779.5,200.5,777.9,200.5z M760.2,206.2c-8.8,0.6-17.5,0.4-26.3,1.5c-2.4,4.3-5.6,11.9-9.6,14.8
	c-3.2-0.1-6.3-0.8-9.5-0.8c-6.9-0.1-13.8,0.1-20.7,0.2c-2.6,0.1-6.4,0.8-8.8,0.3c-0.9-0.2-1.9-1-2.5-1.7c-1.8-1.8-3.2-4.4-4.6-6.6
	c-26.2-1.3-52.5-0.4-78.7-1c-1.8,2.9-3.4,5.9-5.6,8.4c-8.7,0.1-17.5-0.4-26.2-0.9c-1.1,3.8-2.3,8.1-5.9,10.2
	c-4.3,2.5-12,1.1-16.9,1.2l0,99.3c10.1-14.9,27.5-25,45.1-28.5c13.4-2.6,25.4-0.9,37.8,4.9c4.7,2.2,9.4,4.8,14.6,6.1
	c8.4,2.4,16.8,4.8,24.9,8.2c10.2,4.3,20.1,9.5,30.5,13.4c20.9,7.7,42.7,8.5,64.8,6.9c2.9-0.2,9.7-1.2,12.4,0.2
	c0.8,0.4,1.7,2,2.1,2.8c2.8,5,6.2,10.1,8.6,15.3c2.2,4.8,3.7,10,5.9,14.8c1.2,2.6,4.1,4.2,5.1,6.8c0.8,2.1,0.5,3.8,0.3,6l-0.2,1.5
	c7.9-0.2,12.6-1.2,19.4,3.5c-1.8-16.8-5.4-33.9-8.7-50.5c-9-46.6-19.5-93.9-41.1-136.5C764.5,206,762.3,206,760.2,206.2z
	 M266.5,207.9c-5.9,5.6-9.9,12.6-13.8,19.6c-21.9,39.5-32.6,90-39.4,134.4c-1.6,10.7-3.5,21.4-4.3,32.2c11.3-3.7,21.1-10,26.7-20.8
	c4.5-8.9,8.9-18.5,11.7-28.1c50.3,9.7,94.6-15.6,138.3-36.3c20.6-10.2,36.7-15,59.2-7.5c16.1,5.4,31.3,16.2,40.1,31l0-100.4
	c-6,0-17.6,1.7-21.8-2.5c-2.4-2.4-3.1-6.1-3.9-9.3c-9,0.1-18,0.7-27,0.6c-2.3-2.4-3.9-4.8-5.1-7.9l-52.4,0c-7.7,0-16.1-0.8-23.6,0.1
	c-1.2,0.1-1.9,0.4-2.7,1.2c-2.3,2.1-3.2,5.3-5.2,7.6c-6.4,0-43.5,1.1-45.8-1.4c-2.9-3-4.8-8.7-6.5-12.7
	C282.7,208,274.6,208.2,266.5,207.9z M777.4,208c0.4,1.4,0.3,2.1,1.6,3c0.6,0.4,1.4,0.6,2,0.9c0.9,1.8,0.1,3.3,0.5,5.1
	c1.3,5.8,6.9,22.3,11.9,25.9l0.9,0c0.3-1.4-0.2-1.9-0.8-3.2c-3.4-6.8-4.6-13.5-5.9-20.9c-1.4-1.8-2.9-3.5-3.8-5.6l0.2-1
	c1.1-0.3,2-0.3,3.1-0.3c0.8-0.9,0.8-0.8,0.7-1.9C785.7,207.9,780.4,208,777.4,208z M222.3,211l0.4,0.2L222.3,211z M222.8,211.8
	l0.6,0.8c0.6,0.9,1.1,1.8,1.6,2.7l0.6-0.4c0.1-1-0.1-1.4-0.9-2.1C224.1,212.2,223.4,212,222.8,211.8z M220.9,213.2
	c0,0.2,0.2,0.4,0.4,0.4c0.2,0,0.4-0.2,0.4-0.4s-0.2-0.4-0.4-0.4C221.1,212.9,220.9,213,220.9,213.2z M228,214.1
	c-0.2,1.6-0.6,2.9,0,4.4l0.9,0.4c0.5-1.5,0.9-2.3,0.6-3.8C229,214.7,228.5,214.4,228,214.1z M224.5,220.3c0.3,1.7,0.6,2.5,2.1,3.5
	c0.5,0.3,1.1,0.6,1.6,0.9c-0.6-1.8-1.3-3.4-3.2-4.2C224.9,220.4,224.7,220.4,224.5,220.3z M223.1,227c-1,1.1-1.7,1.8-1.8,3.5
	c-0.1,1.2,0.3,2.1,1.1,3c0.9-0.9,1.4-2.1,1.9-3.3c1.1,2.5-0.5,7.3-1.2,9.9l0.2,1.1c1.4-1,4-8.4,4.3-10.4c0.2-1.4-0.1-1.9-0.9-3
	C225.5,227.4,224.4,227.2,223.1,227z M491.7,239.2c-0.9,15.2-0.2,30.8-0.2,46c0,17.6-1,35.9,0.8,53.4c1.1,10.8,4.1,21,7.1,31.3
	c2.1,7.1,3.8,13.7,6.5,20.6c1.6,4,3,10.5,5.6,13.7c0.4,0.5,0.5,0.5,0.9,0.9l0.4-0.5c-0.8-4.7-1.8-9.5-2.3-14.3
	c-1.4-15.4-1.1-30.9-1.3-46.4c-0.3-17.8-1.7-50.2,2.3-66.5c2.9,10.3,3,21.9,3.6,32.5c0.7,13.3,1.1,26.5,1.3,39.8
	c0.2,14.4,0.7,28.7,0.3,43.1l0.2,0.5c1.5-4.5,2-9.9,2.4-14.6c1-12.2,0.6-24.6,0.8-36.8c0.2-13.6,1.3-27.8-0.5-41.2
	c-1.9-14.8-5.8-31.5-12.5-44.8c-1.4-2.8-3-5.3-4.9-7.8c0.8,32.4,2.5,64.5,1.1,97c-0.4,8.9-0.2,18.4-2.1,27.1
	c-3.6-18.7-2.5-37.8-2.4-56.7c0.1-15.4-0.2-30.7,0.1-46.1c0.1-7.3,2.1-15.7,1.4-22.8c-0.3-2.6-1.4-4.3-3.7-5.8
	C495.1,239.8,493.7,239.3,491.7,239.2z M216.8,246.7c-0.8,3.2-2.4,9.3-1,12.4c0.3,0.6,0.3,0.4,1.1,0.7c0.9-0.4,1.5-0.7,2.1-1.5
	c1.3-2.8,2.4-5.6,3.4-8.5C220.5,248.8,218.7,247.7,216.8,246.7z M796.6,253.3c-0.2,0.3-0.2,0.7,0.1,0.9c0.3,0.3,0.7,0.3,0.9,0
	c0.2-0.2,0.3-0.4,0.2-0.7c-0.1-0.2-0.3-0.4-0.5-0.5C797,253,796.8,253.1,796.6,253.3z M796.9,260.3c0.4,3.2,0.9,9.5,3.2,11.9
	C799.6,268.7,799.5,262.6,796.9,260.3z M217.8,266c-3.6,2.5-4.1,6.9-4.8,11.1c-0.3,1.9-1,4.3-0.6,6.2l0.6,0.5
	c2.1-6.4,0.2-9.9,5.4-15.2c0.2-0.9,0.5-1-0.1-1.8C218,266.1,218.2,266.3,217.8,266z M801.5,281.2c0.2,1.9,0.7,5.7,2.2,6.9
	c0.2,0.2,0.4,0.2,0.7,0.4c-0.1-2.1,0.1-5.2-1.5-6.7C802.5,281.4,802,281.4,801.5,281.2z M214.1,286.3l-0.5,1.5
	c0.8,1.1,1.1,1.2,2.4,1.4c0.5,0.1,1.1,0.1,1.5,0.1c0-1.1,0-1.6-1-2.4C215.9,286.4,215,286.3,214.1,286.3z M210.9,290.6
	c-0.4,0.2-0.5,0.7-0.2,1.1s0.7,0.5,1.1,0.2c0.4-0.2,0.5-0.7,0.2-1.1C211.8,290.5,211.3,290.4,210.9,290.6z M805,292.3l0.1,0.9
	l0.4,0.1l-0.3-1L805,292.3z M218.1,293.3l-2.1,1c0.5,0.1,1,0.2,1.5,0.2l1.2,0C218.5,293.5,218.7,293.9,218.1,293.3z M805.4,297.3
	c1.8,10,5,20,7.5,29.9c1.1,4.6,1.6,10.3,3.2,14.7c0.2,0.5,0.4,0.9,0.8,1.2c-0.3-6.9-6.7-41.5-11.1-45.5
	C805.7,297.5,805.5,297.4,805.4,297.3z M210.9,298.5c-1.2,2.7-2.2,5.4-3,8.3c1.4-0.8,2.7-1.7,4.4-1.6l1,0.7c-0.2,3-2.8,2.4-2.6,6.4
	c0.3-0.2,0.5-0.4,0.8-0.5c0.8-0.5,1.2-0.7,2.2-0.7c1.5-1.1,2.2-1.7,2.5-3.7c0.3-2.1,0.5-4.2,1-6.3
	C214.9,300.2,212.8,299.8,210.9,298.5z M422.2,302.7c-13.2,1.4-23.8,5-35.5,11.3c5.2-1.4,10.6-3.1,16-3.9
	c17.5-2.7,37.9-0.7,53.5,8.1c3,1.7,5.7,3.6,8.4,5.7c7.9,6.1,13.9,12.4,20.1,20.3c-4.8-15.5-16.7-26.1-30.7-33.6
	C447,306.9,429.8,301.3,422.2,302.7z M598.3,306.7c-17.1,2.1-36.1,10.1-47,24c-3.2,4.1-5.3,8.6-7,13.5c4.3-5.5,9.4-10.4,14.9-14.8
	c13.9-11.3,30.1-17.8,48.2-18.3c5.6-0.2,11.3,0.4,16.9,0.5C617.3,307.3,606.3,305.9,598.3,306.7z M213.6,313.7
	c-0.4,0.2-0.5,0.7-0.3,1.1c0.2,0.4,0.7,0.6,1.1,0.4c0.3-0.1,0.5-0.4,0.5-0.7c0-0.3-0.1-0.6-0.4-0.8
	C214.2,313.6,213.9,313.6,213.6,313.7z M387.4,313.7c0,0.2,0.2,0.3,0.3,0.3s0.3-0.2,0.3-0.3c0-0.1-0.1-0.2-0.2-0.3
	c-0.1-0.1-0.2-0.1-0.4,0C387.5,313.5,387.4,313.6,387.4,313.7z M209.9,316.7l-1.3,1.6c0.2,1.3,0.5,1.6,1.3,2.7c0.8-1.3,1-1.6,1-3.2
	L209.9,316.7z M544.6,344.3l-0.2,0.6l0.3,0.1l0.2-0.5L544.6,344.3z M619,346.2c-28.2,3.3-50.1,10.3-71.7,29.1
	c-5.2,4.6-10.4,9.2-14.7,14.6c-3.8,4.8-7.1,10-9.9,15.4c3.5,0.1,7,0.1,10.5,0.1c6.7-18.1,31.3-36,48.4-43.9
	c29.5-13.5,60.7-8.1,91.1-1.3c15.9,3.2,31.1,8.8,46.7,13.3c16.4,4.7,32.7,8.2,49.4,11.4c6.2,1.2,17.5,4.3,23.4,1.7
	c0.7-0.9,0.7-0.8,0.6-2c-1.2-1.8-2.2-3-4.5-3.5c-6-1.1-12.2-1.1-18.3-2.3c-6.6-1.3-13.3-3.3-19.9-4.9c-12.4-2.9-24.8-5.7-37.2-8.8
	c-10.4-2.6-20.3-6.4-30.5-9.7C661.7,348.9,640.7,344.6,619,346.2z M615.7,392.2c-2.9,0.3-5.8,0.5-8.7,0.9c4.3,0.4,8.6,0.7,12.9,1.4
	c2.6-0.1,5.2-0.1,7.9-0.3C623.3,391.8,620.7,392,615.7,392.2z M829.6,401.2c0.3,0.2,0.5,0.3,0.8,0.5c3.7,2.2,10.1,2.3,14.3,3
	c8.5,1.6,32.1,6.5,34.9,14.8c0.5,1.5,0.4,3-0.5,4.3c-3.3,5.5-14.5,7.6-20.3,8.8c-13.2,2.7-26.7,4-40,5.3c-6.8,0.7-13.8,1.6-20.6,1.8
	c-0.8,19.9-1.8,39.7-3.2,59.5l7.7,0.1c-0.6-12.6-0.4-24.6-0.1-37.2c0.1-3.7-0.4-8.6,0.5-12.1c0.4-1.4,1.2-2.9,2.2-4
	c0.9-1,2-1.9,3.4-2c0.7-0.1,1.1,0.4,1.7,0.8c4.1,6.7-0.5,30.4,2.5,38.7c1.3-12.8,1.9-26.1,1.7-39l6.2-0.3
	c0.9,13.4,0.1,27.1,2.5,40.3c0.8-13.5-0.4-27.2,0.6-40.7l6.7-0.5c0.1,7.7,0.1,15.5,1.2,23.1l0.1-0.6c0.4-7.3,0.1-15.2,1.1-22.4
	c2.3-0.4,4.4-0.9,6.7-0.7c1.1,1.9,1,27.8,1.7,33c2.3-3.9-0.3-29.9,1.6-33.2c0.1-0.2,1.2-0.7,1.3-0.7c1.4-0.4,3.4-0.3,4.9-0.3
	c0.2,14.1-1.9,28.9-0.4,42.9c1.4-14.3,2.4-29.1,2.2-43.5c2.2-0.4,4.4-0.7,6.6-1.2c-0.1,11.4-0.7,23,1,34.3
	c1.1-11.3,0.5-23.2,0.4-34.6c2.9-0.6,5.8-1,8.6-1.7c0.1,10.3-0.2,20.7,0.2,31l0.1-0.8c1.8-9.6,0.6-19.3,1.9-28.8
	c0.1-1,0.2-1.5,1-2.2c1.7-1.3,4.7-1.7,6.8-2.2c0.2,8.2-1,17.8,0.8,25.7l-0.1,0c0.1-0.2,0.2-0.3,0.3-0.5c0.3-0.7,0.2-22.8,0.2-25.4
	c4.1-2.3,11.3-5.5,12.6-10.4c0.5-1.9,0.2-3.5-0.8-5.1c-6.2-9.6-29.4-13.8-40-15.7C843.8,402,836.3,400.5,829.6,401.2z M186.7,403.7
	c-13.4,0.8-39.1,4.2-48.3,14.4c-1.4,1.6-2.3,3.2-2,5.4c0.4,3,3.5,5.5,5.8,7c0.5,0.3,1,0.6,1.6,0.9c1,7.4,0.6,15,0.7,22.4
	c0.1,15.2,0.1,31.4,2.2,46.3l0.1-0.8c0.7-8.1,0.1-16.5,0.1-24.6c0-7.2,0.5-14.4,0.5-21.5c0-5.1-0.8-10.6-0.3-15.7
	c0.1-1.2,0.3-2.2,0.9-3.3c1.1-0.3,1.2-0.2,2.3,0.3c2.3,3.1,1.8,58.9,3.6,68c0.8-3.4,1.4-6.8,1.6-10.3c0.4-9.3-1.7-50.8,1.4-55.5
	c5.2,10.7,2.1,59.3,4.7,63.2c1-0.1,0.8,0.1,1.3-0.6c3.8-5.4,0.1-54.2,3.5-58.9l0.8-0.1c4.5,4.9-2,58.8,4.2,59.1
	c4.2-4.8,0.3-57.7,3.5-58.7c4.5,8.5,2.9,22,3.5,31.5c0.4,5.9,1.2,11.7,1.8,17.6c0.3,3,0.3,7,1.4,9.8c0.8-0.8,0.7-2.1,0.7-3.1
	c0-1.6-0.2-3.2-0.2-4.8c0.1-8.7-0.8-43.9,1.7-49.2l0.7-0.5c1,0.5,1.1,0.5,1.4,1.7c1,3.7,0.8,8.2,0.9,12c0.5,12.7-0.6,31.9,3.3,43.7
	c1.6-1.4,1.6-6.6,1.8-8.7c0.5-7.7,1-15.6,1.1-23.3c0.1-6.1-1.5-15.5,0.8-21l0.7-0.1c0.8,1,1.3,1.8,1.6,3.1c0.8,3.6,0.8,7.5,1.4,11.1
	c0.9,5.8,2.2,11.7,2.8,17.6c0.7,6.5,0.3,15.3,2.7,21.4l0.5-0.2c2.4-7,1.2-32.1,1-41c-0.1-2.8-0.6-6.3-0.3-9.1
	c0.2-1.3,0.5-1.3,1.5-1.8c1,0.3,1.2,0.3,1.8,1.2c2.7,4.3,3.7,30,3.9,36.7c0.2,4.7-0.4,9.9,1.3,14.3c0.7-0.5,0.7-2.3,0.8-3.2
	c1-8.4,1.6-17.4,2-25.8c0.3-8.3,0-16.3,2.1-24.4c2.9,9.7,3,20.4,3.9,30.4c0.7,7.7,1.7,15.2,1.9,23c1.7,0,3.7,0.3,5.2-0.5
	c1-10,0.2-20.8,0.1-30.9c0-10.4,1-21.8-0.6-32.1c-13.8-0.9-69.9-3-78.4-12.2c-1.1-1.1-2.4-3.1-2.2-4.7c0.2-1.6,1.5-2.5,2.8-3.3
	c7.5-4.3,17.7-5.4,26-7.3c6-1.5,12-3.1,17.9-4.9C191.5,403.5,189,403.4,186.7,403.7z M714.8,404.7c-0.2,0.3-0.1,0.6,0.1,0.9
	c0.2,0.2,0.6,0.3,0.9,0.1c0.3-0.1,0.4-0.4,0.4-0.7c0-0.3-0.3-0.5-0.6-0.6C715.3,404.3,715,404.5,714.8,404.7z M602.2,412.3
	c-7.5,0.1-36.5,1.3-41.7,4.2l-0.1,0.9c1,1,1.6,1.1,3,1.2c4.9,0.1,10.4-1.7,15.3-2.4c6.2-1,12.6-1.3,18.9-1.4
	c40.8-0.8,81.3,0.2,122.1,1c12.1,0.2,24.3,0.7,36.4,0.8c9.3,0.1,18.7-0.3,27.9,0.5c6.7,0.1,44.2,1.3,47.4-1c-0.3-1.1,0-0.7-1-1.3
	c-1-0.6-2.2-1-3.4-1c-57.5,1.4-115.2-1.6-172.8-1.6C636.9,412,619.3,411.2,602.2,412.3z M855.9,418.6c-1.9,1.2-3.8,2.3-5.5,3.6
	c2.6,0.9,6.6,2.7,9.3,2.1c1.9-0.3,3.9-0.3,5.6-1.4l0.4-0.9c-0.5-1.1-1-1.8-2.1-2.4C861.3,418.6,858.3,419.1,855.9,418.6z M155,420.1
	c3.7,4.4,22.1,6.2,27.8,6.7c4.8,0.4,9.9,0.9,14.6,0.5c-4.6-1.6-15-2-20.5-2.9C169.6,423.1,162.3,421,155,420.1z M397.6,423.3
	c-2.5,3.3-8.6,13.5-8.9,17.3l0.5,0.6c1.3-2.3,9-16.2,8.7-17.6L397.6,423.3z M238.6,424.8c-0.3,0.5-0.1,1.1,0.4,1.3
	c0.5,0.3,1.1,0.1,1.3-0.4c0.3-0.5,0.1-1.1-0.4-1.4C239.5,424.1,238.9,424.3,238.6,424.8z M271.8,424.9c-1.8,2.1-3.4,4.3-4.2,6.9
	l0.2,0.8C269.1,430.7,272.1,427.2,271.8,424.9z M389.3,424.9c-1.9,3.2-8.1,11.9-7.3,15.2C383.5,437.2,389.9,427.8,389.3,424.9z
	 M419.6,425.3c-2.5,4.7-5.3,9.7-7.1,14.7c0.3,0.8,0,0.6,0.5,0.8c1.2-2.2,7.1-13.5,7-15.2L419.6,425.3z M223.4,426.2
	c-0.1,0.1-0.1,0.3-0.1,0.5c0.1,0.2,0.2,0.3,0.4,0.3c0.2,0,0.3-0.1,0.4-0.2c0.1-0.2,0.1-0.5-0.1-0.6
	C223.8,426,223.5,426.1,223.4,426.2z M572.2,426.1c-25.5,6.8-59.7,6.4-85.9,4.2c-7.7-0.6-24.1-3.3-30.9-2.7l0.2,0.6l1.5,0.3
	c20.9,5.6,44.5,4.3,66,4.4c12.2,0.1,25.6,0.8,37.6-1.1c4.2-0.7,8.7-1.8,12.4-3.9c0.7-0.4,0.4-0.1,0.7-0.9
	C573.2,426.3,573.3,426.2,572.2,426.1z M310.6,428.2c-0.2,0.2-0.2,0.5,0,0.7c0.1,0.2,0.4,0.3,0.7,0.3c0.3-0.1,0.5-0.3,0.5-0.6
	c0-0.3-0.1-0.5-0.4-0.6S310.8,427.9,310.6,428.2z M325.9,428.2c0,0.2,0.2,0.4,0.4,0.4c0.2,0,0.4-0.2,0.4-0.4c0-0.1-0.1-0.3-0.2-0.4
	c-0.1-0.1-0.3-0.1-0.4,0C326,428,325.9,428.1,325.9,428.2z M352.3,431.2c0,0.2,0.2,0.4,0.4,0.4c0.2,0,0.4-0.2,0.4-0.4
	s-0.2-0.4-0.4-0.4C352.5,430.9,352.3,431,352.3,431.2z M434.4,431.8l0.6,2.8l0.6,0.3l0.3-0.1c-0.2-1.4-0.1-1.8-1.2-2.8
	C434.6,431.9,434.5,431.8,434.4,431.8z M581.3,432.7c2.6,6.7,7.1,11.5,10.9,17.4c-2.4-1.3-4.7-2.5-7-4.1c-12.9,3.7-29.6,7.5-43,6.1
	c-5.3-0.5-10.7-2.6-16-2.6c-5.3,0-10.7,0.8-16,0.9c-10.2,0.3-20.6,0-30.7-0.9c-13.5-1.1-26.5-3.8-39.8-5.5
	c-6.8-0.9-13.9-0.9-20.7-1.2c-6.5,18.4-11.1,39.8-9.2,59.4c1.3-7.4,1.4-14.7,2.3-22.1c0.6-5,1.9-9.8,3.1-14.6
	c1.6,12.3,1.3,25.3,4.4,37.4c0.6-6.6,1-13.1,1-19.7c0-7.7-0.6-16,0.7-23.5c0.3-2,1-4.2,2.5-5.6l1,0.1c4.6,5.3,3.8,26.9,5.6,34.4
	c1.4-4.4,0.9-15.9,1.5-21.5c0.8-7.3,2.4-14.3,3.7-21.5c2.1,8.4,3.6,16.6,4.3,25.2c0.8,10.6,0.3,21.9,3.3,32.1
	c1.5-9.2,1.6-43.3,5.6-49.2l0.9-0.2c2.8,2.9,3.9,32.2,4.6,39.1c0.2,2.3,0.2,5.9,1.2,7.9c0.5,1.1,0.8,1,1.8,1.3
	c1.2-1.1,1.3-3.1,1.4-4.6c0.6-7.9-2.3-33.8,2-38.7c1,0.2,0.7,0,1.2,0.8c4.3,6.8,4,34.3,6.5,44.3c1-8.9,1.1-17.6,1.3-26.5
	c0.1-6.4-0.1-13,1.2-19.3c-1.3-0.2-2.9-0.2-3.9-1.1c1.6-1.3,5.5-2,7.5-1.5c0.7,0.2,0.8,0.2,1.3,0.6l0,0.8c0.4,6,2.1,12,2.8,18
	c1.1,8.7,0.7,17.7,3.3,26.2c0.6-10.4,0.4-20.9,1-31.4c0.3-4.2,1.8-8.3,1.4-12.5c0.9,0,2.8-0.2,3.4,0.5c5.4,6.2,4.7,36.9,6.9,46.2
	c0.4-2.9,0.8-5.8,1-8.7c0.4-6.4-1.2-34.1,2.8-37.8c1.3,0.3,1.7,0.7,2.3,1.9c3.1,5.6,4.9,34.1,6.3,43c1-9,0.7-17.7,0.6-26.7
	c-0.1-4.4-0.6-9.4,0-13.8c0.2-1.1,0.6-1.8,1.4-2.6c1.2-0.5,1.7-0.8,3-0.2c1.4,0.7,2.6,2.4,3.6,3.5c0.2,1.9,0.4,3.7,0.9,5.6
	c2.8,10.7,1.7,23.6,0.6,34.4c1.2-1.4,2.4-2.8,3.8-3.9c0-9.3-2.4-31-0.6-38.6c2.2-1.4,6.6-2.3,9.1-1.7c0.9,0.2,1.6,0.6,2.1,1.4
	c1.2,1.9,0.4,6.2,0.5,8.5c0.2-0.9,0.3-1.7,0.5-2.6c0.4-2.4,1.4-5.4,3.4-6.9c1.2-0.9,1.7-0.9,3.1-0.9c1.8,0.8,2.8,1.9,3.4,3.8
	c2,5.8,2.9,13.5,3.1,19.6c0.1,4.6-2.6,16.5-0.9,19.8l0.8,0c2.5-2.6,2.8-6.3,2.7-9.7c-0.2-8.6-4.5-25.5-0.1-32.9l0.8-0.4l1.2,0.7
	c1.6-0.5,1.9-0.7,3.6-0.3c2.9,2.6,3.3,7.3,3.5,11c0.2,5-1.7,29,0.4,31.2c1.1-0.4,1-0.4,1.6-1.2l0-0.8c-0.2-5.6,0.5-11.3,0.7-16.9
	c0.2-6.2-0.1-13,0.7-19.2c0.2-1.7,0.6-3,1.3-4.6l1-0.8c1.6,0.4,2.2,1.2,3.1,2.6c2.3,3.9,3.9,14.9,3.9,19.5c0,4.7-2.2,18,0,21.3
	c1-2.2,0.7-29.1,1.5-35.7c-0.1-0.2-0.2-0.4-0.3-0.5c-0.5-0.8-0.3-0.5-0.7-1.5c1.5-2.3,3.1-4.4,4.1-7c3.9,5.8,5.8,4.6,7.5,6.5
	c0.3,0.3,0.2,0.9,0.4,1.3c-0.4,0.6-0.9,1.1-1.3,1.7c0.8,6,2.2,12.7,2.2,18.8c0,5.4-1.9,11.3-1.2,16.6c0,0,0,0.1,0.1,0.1l0-1.4
	l1.3,0.7c1.1-1.2,1.9-2.3,2.6-3.8c-0.9-8.3-3.5-30.6,0.5-37.5c1-0.7,1-0.8,2.2-0.7c1.6,1,3,2.1,3.5,4c0.7,2.9,0.2,6.4,0.3,9.4
	c0.8-3.7,1.4-7.4,1.8-11.2c3.1,13.9,1.4,28,2.3,42.1c3.5-12,3-38.3-3.3-49.2c-0.8-1.3-1.8-2.6-2.7-3.8c5.8,2.9,10.4,7.5,12.5,13.7
	c3.6,10.6,2.6,28.7,2.8,40.1c1.2-2.4,2.9-5,3.6-7.5c3.1-10-0.3-24-3.6-33.5c-1.8-5.2-5-12.7-10.2-15.2c-2.2-1.1-5-1.7-6.9-3.4
	C585.9,440.5,585.3,434,581.3,432.7z M375.4,434.2c0,0.2,0.2,0.4,0.4,0.4c0.2,0,0.4-0.2,0.4-0.4s-0.2-0.4-0.4-0.4
	C375.5,433.9,375.4,434,375.4,434.2z M592.9,434.4c-0.2,0.2-0.2,0.5-0.1,0.7c0.1,0.2,0.4,0.4,0.6,0.4c0.3,0,0.5-0.1,0.6-0.4
	c0.2-0.3,0.1-0.7-0.2-0.9C593.6,434,593.2,434.1,592.9,434.4z M606.7,434.2c0.1,3.1,0.7,5.8,2.2,8.5c0-2.5,0.1-4.9-0.7-7.3
	C607.6,435,607.2,434.5,606.7,434.2z M374.9,435.2c0,0.2,0.2,0.4,0.4,0.4c0.2,0,0.4-0.2,0.4-0.4s-0.2-0.4-0.4-0.4
	C375,434.9,374.9,435,374.9,435.2z M611.9,434.7c0.4,1.9,0.4,3.4,2.1,4.6c-0.2-1.3-0.2-3.4-1.3-4.2
	C612.4,434.9,612.1,434.8,611.9,434.7z M619.7,434.8c0.5,2.1,0.8,5.2,2.3,6.9c-0.1-2,0-4.8-1.5-6.3C620.3,435.2,620,435,619.7,434.8
	z M625.7,434.7c0.4,2.4,0.7,4.9,1.9,7.1c0-2.2,0-4.2-0.9-6.3L625.7,434.7z M631.4,434.6c0.8,1.8,1.6,4.9,3.1,6.1
	c0.1-1.7,0.4-3.2-0.4-4.8C633.2,435.2,632.5,434.9,631.4,434.6z M640.5,434.9c0.7,3,1.6,6,3,8.8c0.1-2.6,0.6-5.4-0.4-7.8
	C642.2,435.3,641.5,435.1,640.5,434.9z M646.7,434.9c0.9,2.6,1.7,5.3,3.2,7.6l0.9,0.3c0.4-2.6,0.8-4.6-0.8-6.9
	C648.8,435,648.1,435,646.7,434.9z M407.7,435.3l-2.4,6.1l0.4,0.8c0.9-1.8,2.6-4.5,2.1-6.5C407.8,435.6,407.7,435.5,407.7,435.3z
	 M596.1,436.2l0.1,1.2l0.6-0.1l-0.3-1.1L596.1,436.2z M655,435.3c0.7,2.1,1.8,7.1,3.8,8.2c0.7,0.4,1.1,0.4,1.9,0.4
	c-0.6-2.9-0.9-6.4-3.5-8.2L655,435.3z M662,435.2c0.2,2.3,0.1,5.1,1.4,7c0.9,0.4,1.8,0.6,2.8,0.9C665.3,440,664.8,437,662,435.2z
	 M667.6,435.4c1.4,2.2,2.7,4.6,4.7,6.4l1,0c-0.2-1.8-0.2-3.6-1.6-5C670.8,435.9,668.8,435.7,667.6,435.4z M374.4,436.2
	c0,0.2,0.2,0.4,0.4,0.4s0.4-0.2,0.4-0.4s-0.2-0.4-0.4-0.4S374.4,436,374.4,436.2z M593.9,436.3c0,0.2,0.2,0.3,0.3,0.3
	c0.2,0,0.3-0.1,0.3-0.3c0-0.1,0-0.3-0.2-0.3c-0.1-0.1-0.3-0.1-0.4,0C594,436,593.9,436.1,593.9,436.3z M249.2,437.1
	c-3.3,1.7-6.3,3.3-7.4,7.1c-1.5,5.4-2.4,51.5-0.8,55.6c6.4-7-3-51.1,4.8-53.5c4.5,5-0.4,48.2,4.1,53.7l1.4-0.6
	c2.4-6.8,0.4-18,0.4-25.4c0-6.3,0.4-12.5,0.7-18.8c0.1-1.3-0.2-4.1,0.4-5.1c0.3-0.4,0.8-0.7,1.2-1c4.1,5.8,0.7,45.2,5.4,50.5
	c1.3,0.1,2.2,0.2,3.5-0.1c2.6-3.9-2.3-44.2,1.5-48c0.9,0.2,0.9,0,1.3,0.7c4.4,7.4,0.7,43.4,7,47.5l0.8-0.3
	c0.6-8.7-0.1-38.6,3.6-44.5l0.9-0.2c4.8,5,4.5,42,7.8,45.2c1.1-0.3,1.4-0.6,1.9-1.8c2.2-5.8-3-33.8,1.5-41.5l0.9-0.4
	c1,0.7,1.4,0.8,1.8,2.1c0.8,2.9,0.3,6.4,0.5,9.3c0.3,4.4,2.8,30.4,4.8,32.3c0.9-0.7,0.8-1.1,1-2.2c1-6.9,0.2-14.6,0.3-21.6
	c0.1-2.8,0.8-5.4,0.9-8.1c0.1-3.3-0.4-7.2,0.4-10.4c0.2-0.8,0.7-1.1,1.2-1.7c3.2,2.8,6.2,29.8,7,35.6c0.3,2.2,0.2,4.9,0.8,7
	c0.3,1,0.3,1,1.3,1.3c1.4-1.3,1.4-2.6,1.4-4.5c0.2-6.7-0.9-35,1.6-39.5l0.8,0c6,8.8,6.7,30.5,8,41.3l0.5,1.3
	c1.2-1.1,1.1-3.4,1.2-5.1c0.4-8.6-0.2-30.6,1.6-36.9l1.5-0.6c3.4,7,4,39.1,7.2,42.9c3.4-6.7-0.5-40.2,4.6-42.1
	c1.9,1.4,2.2,4.1,2.5,6.2c1.9,12.5,2.4,25.5,3.9,38.1c0.8-6.4,1.5-12.7,1.8-19.1c0.4-9.4-0.3-20.1,2.3-29.3c0.9,2.5,1.8,4.9,2.2,7.6
	c1.7,11.7,0.8,23.8,2.5,35.4c0.2,1.2,0.4,1.9,1.4,2.7c4.3-4.2,1.4-36.5,5.2-42.8c1.1,0.1,1.9,0.4,2.6,1.2c4.9,6,1.1,31.8,4.3,40.6
	l0.5-0.2c2-8.9-0.2-34.6,4.2-41.1c1.2,0.5,1.2,0.8,1.6,2.1c4.4,12.5,2,29.3,5.5,42.9c2.7-11.7-1-40.2,2.6-47.7
	c0.6-0.1,1.1-0.3,1.6,0.1c7,5.3,4,41.5,7.9,46.1c0.8-1.2,0.9-2.5,1.1-3.9c0.7-5.7,0.4-11.5,0.7-17.3c0.4-6.4,2-12.8,0.9-19.2
	c-0.6-3.4-1.4-7.6-4.3-9.7c-5.5-4-14.1-6.4-20.8-7.5c-14-2.3-28.8-1.6-43-2c-14.6-0.4-29.2-1.7-43.8-2.4
	C271.1,437.5,260.1,437.8,249.2,437.1z M672.9,436.9c1.6,1.5,2.9,3,5,3.7c-1.1-1.9-1.8-2.8-4-3.4C673.6,437.1,673.3,437,672.9,436.9
	z M677.8,438l0.4,0.8l0.5-0.3l-0.4-0.6L677.8,438z M766.3,437.7c-14.2,2-28.4,4-42.7,5.1c-15.4,1.2-30.8,1.4-46.2,2.2
	c-7.9,0.4-15.8,0.9-23.7,1.2c-4.2,0.2-9-0.2-13.1,0.5c-2.2,0.4-3.8,1.7-5.1,3.4c-7.8,10.4-9.2,39.3-8.8,52.4
	c8.3-9.9,8.3-21.2,8.5-33.5c0.1-2.8-0.3-6.2,0.3-9c0.2-1,0.1-1.1,1.1-1.5c1.7,1.1,2,2.4,2.4,4.3c1.9,9.3,0.6,19.9,0.2,29.4
	c0.1-0.2,0.1-0.4,0.2-0.6c2.1-6.8,2.7-14.9,2.3-21.9c-0.2-3.1-0.7-6.4-0.5-9.5c0.1-1.3,0.2-1.7,1-2.7c1.4-0.4,1.6-0.5,3-0.1
	c2.9,2.8,2.7,8.5,2.8,12.3c0.3,11.3-1.4,22.9-2.1,34.2l0.3-0.6c2.6-6.7,4.1-15.6,4.2-22.8c0.1-5.7-1.7-18.5,0.1-23.3l0.8-0.4
	c0.7,0.3,0.9,0.2,1.2,1c2.2,6.7,2.1,34.5,2.2,43.1c1.9-7.5,2.9-15.2,2.8-23c0-3.7-1.6-18.9-0.5-21.1c1.1-0.5,1-0.5,2.2-0.2
	c3.4,8.4,0.1,34.9-0.7,45c6.1-16.5,3.4-28.9,4.3-45.7c1.9,0,4.1-0.3,5.8,0.7c3.1,4.8,2.9,24.8,3.3,31.6c0.1,2.2-0.1,5.2,0.8,7.2
	c2.7-5.3,0.1-33.2,0-39.8l10.6-0.9c0.6,16.8,1,33.6,2.6,50.3c3.1-12.4-0.9-36.5-0.6-50.5c5-0.1,10.1-0.5,15-0.1
	c0.7,11.3,2.2,22.5,2.7,33.8c0.1,3-0.4,12.3,0.5,14.6l0.8-0.4c0.1-1,0.1-1.8,0.1-2.8c-0.2-4.2,1.7-9.9,1.8-14.6
	c0.3-7.8-1.2-15.5-1.8-23.2c-0.2-2.1-0.9-4.8-0.3-6.8c1.3-0.8,2.7-1.1,4.2-0.8c0.4,0.1,0.8,0.2,1.2,0.3c5.6,9.3,3.3,38.2,1.3,48.8
	c3.4-6.9,4.5-13.6,5-21.2c0.3-5.3,0.3-11-0.4-16.3c-0.4-3.2-1.4-6.6-1.5-9.9c0-1-0.1-1.3,0.6-2.2c1.6,0.1,2.9,0,4.3,0.9
	c3.5,8.9,1.2,35.9,2.1,46.9c3.6-14.6,4.2-29.1,2.1-43.9c-0.3-2.1-0.7-2.9,1.1-4.2l1.4-0.2c2.9,2.5,2.9,16.6,3.1,20.7
	c0.6,9.2,0.2,19,1.5,28.1c1.3-8.2,2.8-16.2,2.4-24.5c-0.2-4.2-3-21.9-1.8-24c1.3-0.6,1.4-0.7,2.7-0.4c1.3,1.1,1.8,2.1,2.3,3.7
	c1.4,4.5,1.4,9.6,2.1,14.3c0.6,4,1.7,8,2.1,11.9c0.4,3.9,1,12.2,0,15.8l0.4-0.3l0,0.8l-0.2-0.4l0.1,1.4c1.5-1.6,2.5-15.4,2.4-18.3
	c0-5.2-4.6-26.8-3.5-29.1l0.8-0.4c1.8,0.8,2.5,1.9,3.2,3.7c1.2,3.1,1.6,6.6,2.2,9.9c1.1,6.5,2.1,12.9,2.5,19.5
	c0.3,5.7,0,11.5,0.5,17.2c7.6-31.3-4.8-45.7-1.3-50.6c1.3-0.3,2-0.4,3.3,0c2.8,3.6,5.4,30.3,5.9,36.8c0.2,2.3-0.2,4.6,0.1,6.9
	c2.8-10.5,1.5-22.2-0.4-32.8c-0.5-3-1.7-6.3-1.9-9.3c-0.1-1.3,0.4-1.8,1.3-2.7c1.4-0.2,1.6,0,2.8,0.6c3.4,4.3,2.2,31,3.8,31.8
	c4.2-6.4-1.1-30.7,0-32.6c0.3-0.5,0.8-0.7,1.3-1.1c0.8-0.1,1.1-0.3,1.7,0.2c2.1,1.7,2.1,5.3,2.1,7.8c0.2,8.3-0.2,16.7,0.4,25
	c1.3-7.4,2.4-15.4,2.5-22.9c0-2.7-0.6-5.4-0.4-8.1c0.1-1.3,0.1-1.6,1-2.5c1.3-0.1,1.6-0.1,2.8,0.6c3.6,5.4,0.6,45.1,3.3,49
	c1.1-0.9,1.5-1.7,1.7-3.2c0.4-3.5-0.1-7.3-0.1-10.8c0-9.4-0.5-18.7-0.8-28c-0.2-4.9-0.1-10-0.7-14.8c-0.2-1.3-0.5-2.7-1.4-3.7
	c-0.8-1-2-1.4-3.3-1.4C770.2,437.2,768,437.3,766.3,437.7z M686.8,438.8c-0.1,0.2-0.1,0.4,0,0.5c0.1,0.2,0.3,0.3,0.5,0.3
	c0.2,0,0.4-0.1,0.4-0.3c0.1-0.2,0-0.5-0.2-0.6C687.3,438.5,687,438.6,686.8,438.8z M399.6,466.3c0.6,8.6,0.7,17.1,1,25.7l0.8,0.1
	c1-7.8,1.3-17.8-1.2-25.4L399.6,466.3z M847.9,490.7c0,0.2,0.1,0.5,0.3,0.6c0.2,0.1,0.5,0.1,0.6-0.1c0.2-0.2,0.2-0.4,0.1-0.6
	c-0.1-0.2-0.3-0.4-0.6-0.3C848.1,490.3,847.9,490.5,847.9,490.7z M602,492.2c-0.2,0.2-0.3,0.5-0.2,0.8c0.1,0.3,0.3,0.5,0.6,0.6
	s0.6,0,0.8-0.2c0.3-0.3,0.3-0.8,0-1.1C602.8,491.9,602.3,491.9,602,492.2z M624.1,494.6c-0.2,0.2-0.2,0.5-0.1,0.7
	c0.1,0.2,0.4,0.4,0.7,0.3c0.2-0.1,0.4-0.3,0.4-0.5c0-0.2-0.1-0.5-0.3-0.6C624.6,494.4,624.3,494.5,624.1,494.6z M531,495.2
	c0,1.3-0.4,3.4,0.4,4.4l0.2,0.1C531.8,498,531.9,496.8,531,495.2z"/>
<path d="M715.7,157.3c-0.1,0.1-0.3,0.2-0.5,0.2c-0.2,0-0.3-0.2-0.4-0.3c-0.1-0.2,0-0.4,0.1-0.5c0.2-0.2,0.5-0.2,0.7,0
	C715.8,156.8,715.8,157.1,715.7,157.3z"/>
<path d="M374,175.8c0,0.2-0.2,0.4-0.4,0.4c-0.2,0-0.4-0.2-0.4-0.4s0.2-0.4,0.4-0.4C373.9,175.4,374,175.5,374,175.8z"/>
<path d="M781.4,192.6c-0.1-0.1-0.2-0.3-0.1-0.4c0-0.2,0.2-0.3,0.3-0.3c0.2,0,0.3,0,0.4,0.1c0.2,0.2,0.1,0.4,0,0.6
	S781.6,192.7,781.4,192.6z"/>
<path d="M571.7,334.9c-0.1-0.2,0-0.5,0.2-0.6c0.2-0.1,0.5,0,0.7,0.2c0.1,0.2,0.1,0.4,0,0.5c-0.1,0.2-0.3,0.2-0.5,0.2
	S571.7,335.1,571.7,334.9z"/>
<path d="M563.4,338c-0.1-0.2-0.1-0.4,0.1-0.5c0.2-0.1,0.4-0.1,0.5,0.1c0.1,0.1,0.1,0.3,0.1,0.4c-0.1,0.1-0.2,0.2-0.3,0.2
	C563.6,338.2,563.5,338.2,563.4,338z"/>
<path d="M332.5,390.3c15.1-6.1,29.2-8.8,45.3-10.6c11.5-0.3,24.3,1.1,35.5,3.3c18.6,3.7,44.6,11.5,55.6,27.9
	c-10.2-8.5-20.9-13.7-33.4-18.1c-19.7-6.8-45.7-10.2-66.6-8.3C356.7,385.6,344.6,388.3,332.5,390.3z"/>
<path d="M651.6,390.1c3.1,0.7,6.6,1.3,9.4,3l0.1,0.7c-0.7,0.3-1.3,0.4-2,0.4c-5.2,0.2-19.9-2.2-23.7-5.7c-0.5-0.5-0.9-0.9-1.5-1.3
	c-1-0.7-1.6-1.1-2.3-2.1l6.2,0.5c1.5,1,2.9,2.3,4.3,3.5c2.9,0.5,5.9,1,8.9,1.5c-3.3-1.9-6.6-3.8-9.5-6.3c4,0.6,8.7,1,11.7,3.9
	l-0.2,0.5l-2.7,0.1l0,0.4L651.6,390.1z"/>
<path d="M686.7,397.6l0,0.4c-1.8,0.7-4.8-0.9-6.6-1.5c-1-0.4-4.7-1.8-5.7-1c-0.8,0.6-0.1,0.8-1.4,1.4c-2.4-0.5-4.6-1.4-6.7-2.6
	c-2.8-1.6-9.4-6.1-10.3-9.2c6.8,0.2,9.6,7.8,16,8.4c1,0.1,0.6,0.2,1.5-0.5c-0.5-0.6-1.2-1.2-1.5-1.9c0.6-0.2,0.7-0.3,1.4-0.4
	C677.2,390.2,684,395.3,686.7,397.6z"/>
<path d="M317.6,397.8c16-6.3,34.7-7.5,51.7-9c7.8-0.8,24.5-0.3,32.1,1.1c2,0.4,3.2,0.8,4.4,2.6c-0.9,0.9-4.9,0.4-6.2,0.4
	c-14.8-0.4-29,0.2-43.8,1.4C343.1,395.5,330.4,397,317.6,397.8z"/>
<path d="M0,597.1c1.6-8.7,0.8-18.9,0.8-27.8l0-49.7l657.1,0l253-0.4c37,0,74.3-0.9,111.3,0l0.3,195.7c-8.7,5.3-10,5.7-20.4,6
	c-29.5,0.7-59.2,0.2-88.7,0.1l-157.8,0l-492.3,0l-184.4,0L33.7,721c-6.1,0-16,0.9-21.7-0.5c-3.7-0.9-7.6-3.5-11.1-5.1l-0.4-50.9
	c-0.1-7.1,0.7-15.2-0.5-22.2V597.1z M253.4,564.2c-11.2,1.2-21.6,5.7-28.9,14.6c-10.7,13.2-14.1,32-12.2,48.5
	c1.5,13.9,7.3,28.3,18.5,37.1c8.7,6.9,18.2,8.9,29,8.6c12.1-1.6,21.8-6.5,29.3-16.4c10.2-13.3,13.1-31.8,10.7-48.1
	c-2-13.6-8.2-28.2-19.6-36.6C272.5,566.3,263,563.5,253.4,564.2z M125.6,564.6c0,35.7-0.6,71.7,0.3,107.4l24.6,0
	c14.5,0,32.9,1.4,44.1-9.7c1.8-1.8,3.3-3.9,4.6-6.2c3.6-7.6,4.5-15.4,1.6-23.5c-2.5-6.8-7.5-12.4-14.1-15.4
	c-0.7-0.3-1.4-0.6-2.2-0.9c5.9-3.1,10.1-7.5,12.2-14c2.4-7.4,1.4-15.8-2.3-22.6c-3.9-7-10.9-11.6-18.4-13.7
	C163.5,562.8,139,564.5,125.6,564.6z M351.3,564.6c-12.7,2.6-22.2,8.8-29.3,19.8c-9.1,14-11.4,33.8-7.8,49.9
	c2.8,12.8,10.1,25.5,21.3,32.6c8.6,5.4,19.5,7.6,29.5,5.7c12.8-3.1,21.9-9.4,28.8-20.7c9-14.7,11-33.4,6.9-49.9
	c-3.2-12.9-10.7-25.3-22.3-32.2C369.8,564.7,360.9,563.8,351.3,564.6z M417.5,565.4l-0.1,106.2c8.7,0.1,17.4-0.1,26.1-0.5l0-30.9
	c2.2-3.2,4.5-6.1,7.3-8.9c6.2,13.6,13.1,27.6,20.7,40.4c9.7,0.1,19.4,0.1,29.1-0.2l-10.7-20.4c-7.3-13.8-15.7-27.6-22-41.9
	c10.5-14.1,20.4-28.6,29.7-43.5c-9.4-0.6-18.8-0.4-28.2-0.4c-9.3,13.4-17,27.8-26,41.3l-0.3-41.1L417.5,565.4z M511.7,566
	c-0.8,35.1-0.2,70.4-0.2,105.5c18.8,0,57.8,3.2,71-10.1c1.7-1.8,3-3.7,4.2-5.9c3.3-8.1,4.4-17.7,1.1-26c-2.4-5.9-7.2-10.6-13.1-13
	c-1.7-0.6-3.4-1.2-5.1-1.7c5.6-1.9,9.7-5,12.3-10.6c3-6.5,3.1-14.6,0.6-21.3c-2.4-6.2-6.8-10.3-12.8-12.8
	C554.5,564,528.1,566,511.7,566z M605.1,566.1l0,105.3c8.6,0.2,17.2,0.2,25.9,0.2c0-12-0.1-24,0.1-36c4-0.2,8-0.5,12.1-0.4
	c4.1,12.2,7.9,24.5,12.2,36.6l4.7,0.2c7.8-0.3,15.7-0.4,23.6-0.4c-4.9-14.5-11-28.8-15.8-43.3c7.1-4.9,11.8-11.3,13.3-19.9
	c1.7-9.7,0.1-20.3-5.6-28.4c-5.4-7.6-13.5-11.7-22.5-13.1c-6.8-1.1-13.8-0.7-20.6-0.7L605.1,566.1z M701,566.2
	c-0.8,35.1,0,70.2,0,105.3c22.4,0.1,44.8,0.5,67.2-0.3l0-22.6c-4.8,0-39.2,0.8-41.2-0.7c-0.1-0.8-0.2-1.6-0.1-2.4
	c0-5.6,0-11.1,0.1-16.7l27.1-0.4c0-7.1,0.1-14.2-0.1-21.2c-9-0.3-18,0.1-26.9,0l0-17.8c13.3-0.1,26.7,0.1,40-0.4
	c0-7.6,0.1-15.1-0.1-22.7C745,566.2,722.9,565.6,701,566.2z M778.8,566.7c-0.5,3.6,7.9,35.3,9.2,40.9c4.8,21.2,9.1,42.5,14.3,63.7
	c4.1,0.1,8.2,0,12.3,0.2c5.2-18.7,11.8-37,16.9-55.8c6.2,18.3,11.7,37,18,55.2c4.3,0.3,8.5,0.5,12.7,0.5c3.6-18,6.8-36.3,11.2-54.1
	l10.4-50.4l-25.3-0.1c-3.1,17.1-5.7,34.4-7.8,51.7l-0.3-0.6c-4.7-11-8-23.1-11.7-34.5c-1.7-5.2-3.1-11.4-6-16.1
	c-1.3-0.4-2.2-0.4-3.6-0.3c-3.2,4.7-5.6,16.9-7.4,22.9c-2.8,9.2-5.6,18.8-9.3,27.6c-2.6-16.8-4.5-34.3-8.7-50.7
	C795.4,567,787.1,566.9,778.8,566.7z M945.4,590.8c-6.2,9.1-12.2,18.3-18.1,27.6c3,4.7,15.2,24.1,18.4,26.8c6.3-8.8,12.3-17.8,18-27
	C961.3,614.1,948.2,592.8,945.4,590.8z M70.1,591.8c-5.9,9-11.8,17.9-17.9,26.8c3,4.3,15.7,24,18.3,25.6
	c6.1-8.5,11.8-17.4,18.2-25.6C84.6,612.3,75.1,596.3,70.1,591.8z"/>
<path d="M151.7,608.3c0-6.3-1.1-15.6,0.3-21.5l1.2-0.6c4.4-0.2,8.8-0.3,13.2,0.5c0.7,0.6,1.4,1.2,2.1,1.9c2.4,2.4,3.9,5.6,3.8,9.1
	c-0.1,3.8-1.8,6.4-4.5,8.9C162.6,609.2,157.1,608.5,151.7,608.3z"/>
<path d="M537.5,607.5l0-20.4c5.8,0,13,0.2,17.6,4.3c1.4,1.3,2.7,3,2.6,5c0,3-1.9,6-4,8.1C548.5,607.5,543.5,607.5,537.5,607.5z"/>
<path d="M256,648.6c-2.8-0.2-5.5-1.1-7.8-2.7c-6-4.1-8.6-11.6-9.8-18.5c-1.8-10.1-0.7-22.6,5.5-31.2c3.4-4.7,7.2-6.7,12.8-7.6
	c2.4,0.2,4.5,0.9,6.5,2.2c6,3.8,8.8,10.7,10.1,17.3c2.2,10.5,1.3,24-5,33C265,645.8,261.4,647.5,256,648.6z"/>
<path d="M359.9,648.3c-3,0.1-5.9-0.3-8.6-1.7c-5.7-3.1-9.3-9.4-11-15.4c-2.8-10-1.9-24,3.5-33c2.8-4.8,6.1-7.6,11.5-9
	c2.8-0.1,5.1,0,7.7,1.3c5.2,2.6,8.5,7.7,10.4,13c3.6,10.4,3.6,24.2-1.3,34.2C369.4,643,365.8,646.4,359.9,648.3z"/>
<path d="M631,612.1c-0.1-7.6,0-15.1,0-22.7c6.1-0.2,14.9-1.4,20.1,2.4c2.3,1.7,3.5,4.1,3.8,6.9c0.5,4.3-0.1,7.2-2.7,10.6
	C646,613.6,638,612.3,631,612.1z"/>
<path d="M151.6,650.5c0-5.1-1.3-18.3,0.6-22.3l1.8-0.5c1.1,0,2.3-0.1,3.4-0.1c4.8,0,11.5-0.7,15,3.1c2.2,2.3,2.6,5.8,2.3,8.8
	c-0.3,4.2-1.8,6.8-5,9.5C164.1,651.7,157.5,650.8,151.6,650.5z"/>
<path d="M537.5,650l0-22.5c6.6,0,18.2-1.2,23.2,3.7c1.8,1.8,2.7,4.3,2.6,6.9c-0.1,3.4-1.9,5.7-4.1,8
	C552.8,650.4,544.9,649.9,537.5,650z"/>
<path d="M100.5,733.8c19.2,0.4,38.5,0.1,57.7,0.1l94.7-0.1l675.5,0.3c4.9,5.7,9.8,10.9,15.6,15.6c-9.5,16.3-19.3,32.4-30.3,47.7
	c-36.5,49.9-81.5,92.9-133,127.3c-17.8,11.7-36.5,21.8-55.5,31.4c-54.5,26.4-113.4,42.6-173.8,47.6
	c-131.5,9.9-261.5-33.4-360.9-120.2c-39-33.1-72.1-72.5-97.9-116.6c-2.2-3.7-9.5-14-9.8-17.7c2.6-3,6.2-5.3,9.3-7.9
	C95,738.9,97.7,736.3,100.5,733.8z M884.9,794.1c-24.5,15.5-58.6,21.8-86.8,27.5c-13.2,2.7-26.3,5.5-39.6,7.6
	c-13.8,2.1-27.7,3.1-41.6,4.6c-26.8,2.8-53.5,5.4-80.4,6.9c-18.2,1-36.5,1.2-54.8,1.7c-23.7,0.7-47.4,1.7-71.1,1.7
	c-50.3-0.6-100.6-2.9-150.7-6.9c-11.2-0.9-22.4-1.4-33.6-2.5c-42.9-4-85.5-10.7-127.6-20.3c-19-4.3-38.9-10.3-56.6-18.5l4,5.4
	c1.6,2.2,3.9,4,5.8,5.9c3.7,3.6,12.1,5.3,17,6.8c24.6,7.2,49.7,11.9,75,16.2c22.1,4,44.4,7.4,66.7,10.1c8.3,1,16.6,2.2,24.9,3
	c6.4,0.7,19.6,1.1,24.6,2.9c-0.6,0.7-0.2,0.5-1.4,0.5c-3.5,0.2-7.2-0.5-10.7-0.7c-9.9-0.5-19.7-1.3-29.5-2.2
	c-53.2-4.3-106-12.9-157.9-25.7c4.4,5.2,8.8,10.6,13.7,15.4c0.2,0.2,0.4,0.4,0.6,0.6c2.3,2.3,6.8,2.3,9.8,3.3
	c21.6,7.2,44.9,10.5,67.4,13.8c64,9.5,129,13.8,193.6,16.3c3.4,0.1,30.5,0.3,31.6,1.2c1,0.9,1.2,1.5,1.3,2.7l-0.5,0.7l-1,1.5
	c-6.5,9.4-8.1,23.2-6,34.2c0.6,2.9,1.5,5.7,2.5,8.5c-1.9-15.9-2.6-26.6,7.8-39.8c6.4-8.1,17.1-15.6,27.6-16.6
	c10.1-1,20.5,4.3,28,10.7c8.3,7,13.4,17.1,14.1,27.9c0.5,7.7-1.5,14.3-4.2,21.3c-0.8,2.1-1.9,4.3-2.4,6.5c-0.2-0.1-0.4-0.1-0.6,0.1
	c-0.1,0.2-0.1,0.4,0.1,0.6c0.1,0.1,0.3,0.1,0.4,0.1c0.1-0.1,0.2-0.2,0.3-0.3c0-0.1,0-0.3-0.2-0.4c5-6.5,7.7-15.3,8.3-23.4
	c0.6-9-1.6-22.8-7.8-29.7c-0.1-0.1-1-1.1-1.2-1.3c-0.7-1-0.8-1.6-0.5-2.7c3.1-2.5,18.9-1.1,23.4-1.1c29.5-0.4,59.2-2.5,88.6-4.6
	c55.9-4,114.2-9.5,168.5-23.6c8.5-2.2,18.5-4.1,26.4-7.8c6.1-2.8,11.9-10.6,16.6-15.4c-19,5.7-38,11-57.4,15.1
	c-53,11.1-107.9,15.4-161.9,17.6c-7.8,0.3-30,2.3-36.3,0.8c2.7-2.3,47.9-4.7,54.4-5.1c35.1-2.4,70-6.2,104.7-11.6
	c26.1-3.9,53.1-8.3,78.1-16.6c8-2.6,18.3-5.3,25.4-9.9C877.9,804.6,882.9,798.1,884.9,794.1c0.1,0.1,0.2,0.1,0.4,0.1
	c0.1,0,0.2-0.1,0.3-0.3c0-0.1,0-0.3-0.1-0.4c-0.1-0.1-0.4-0.1-0.5,0C884.8,793.7,884.8,793.9,884.9,794.1z M391.2,738.3
	c-0.1,0.1-0.1,0.3-0.2,0.4c-4.9,11-5.1,36.5-5.8,48.9c-0.2,3.1,0,6.4-0.4,9.5c-0.2,1.2-0.2,1.9-1.3,2.5c-1-0.3-1.2-0.4-1.7-1.4
	c-2.2-4.3-1.2-19-1.6-24.7c-0.4-5.6-1.2-11.3-2.9-16.6c-0.5,10.5,0.7,41.3-7.2,48.1c-0.9,0.8-1.4,0.8-2.5,1l-0.9-0.5
	c-0.6-3.1,0.1-6.6,0.1-9.8c0-13.4,1.7-34.4-4-46.4c-0.6,6.6-1.5,13.2-1.8,19.8l-1.4,38.3c-0.1,2.7,0.4,10.4-0.1,12.3
	c-0.1,0.5-0.5,0.9-0.7,1.3c-1.3,0.7-1.5,0.8-3,0.7c-1.1-0.6-2.2-1.1-2.7-2.3c-1.5-3.9-0.6-10.6-0.6-14.8c0.1-16,1.9-39.5-2.8-54.6
	c-1.2,5.6-1.9,11.3-2.1,17c-0.2,10.7,2.7,54.5-1.1,60.5l-1,0.4c-1.2-0.5-1.6-0.9-2.2-2.1c-2.5-5.7-0.8-36.8-1-45
	c-0.3-10.6-1.3-22-4.4-32.1c-1.4,7.6-2.7,15.3-3,23.1c-0.3,7.8,2.7,40.5-2.6,45.1c-0.7,0-1,0.2-1.5-0.4c-1.9-2-2.6-5.9-2.8-8.5
	c-0.4-5,0.6-10.3,0.6-15.3c0-14.8-0.5-29.4-2.7-44.1c-0.8,8.6-1.6,50.9-5,55.9l-0.9,0.3c-1.4-0.9-2-1.8-2.4-3.4
	c-0.9-4.3-0.5-9.2-0.7-13.5c-0.3-10.7-0.7-29.6-4.1-39.2c-0.9,14.4-1.3,28.8-2,43.2c-0.3,5.1-0.1,10.5-0.8,15.5
	c-0.3,2.1-0.7,4.4-2.1,6.1l-0.7,0c-2.8-4.1-2.1-12.5-2.1-17.2c0-17.8,0.1-30.2-3.1-48.2c-2.7,17.7-3.4,35.3-3.3,53.2
	c0,3.1,0.6,6.8-1,9.6c-1,0.2-1.4,0.3-2.2-0.5c-1.5-1.4-1.9-4.5-2.2-6.5c-0.6-4.4-0.2-9.2-0.2-13.6c-0.1-12.7,0.3-31.6-3.5-43.4
	c-0.7,5.9-1.7,11.9-1.9,17.9c-0.3,5.8,0.7,35.3-1,38.3c-0.2,0.3-0.8,0.8-1,1c-0.9,0.7-2.2,0.7-3.3,0.4c-2.6-3.1-1.4-33.9-2-41.1
	c-0.4-5.3-1.5-10.4-3-15.5c-0.5,5.6-2.6,42.5-3.9,44.4l-0.9,0c-3.7-4.1-5.9-37.4-7.2-44.8c-1,5.4-2.4,11-2.7,16.5
	c-0.3,5.8,2.5,28.7-1.6,31.6c-1-0.2-0.9,0-1.4-0.8c-1.9-3.1-1.9-27.6-2.4-33.3c-0.4-4.6-1.2-9.3-1.9-13.9c-0.9,3.1-1.4,6.2-1.7,9.5
	c-0.4,5-0.6,34.4-1.9,36c-0.9-0.2-0.6,0-1.1-0.8c-0.7-1.1-7.4-26.2-7.9-29c-1.5,9.5-3.9,31.3-2.5,40.1c0.4,2.6,1.3,5.2,2.9,7.3
	c2.5,3.2,5.8,5.7,9.5,7.3c5.8,2.4,13,2.9,19.2,3.9c10.9,1.7,21.7,3.4,32.7,4.6c17.5,2,35.1,3.6,52.6,4.7c5.5,0.4,12.4,1.6,17.8,0.5
	c2.9-0.5,6.2-2.5,8.5-4.4c5.5-4.4,6.5-11.2,7.1-17.7C392.1,796,394.4,750.5,391.2,738.3z M229.1,740.8c-1.5,4.6-2.7,9.2-3.3,14
	c-1,8.1-1.1,40-4.3,44c-0.9,0.1-0.8,0.3-1.4-0.2c-2.5-2.1-2.4-8.3-2.5-11.4c-0.1-13.9,0.3-26.7-3-40.4c-3.9,15.2-3.4,27.1-3.5,42.5
	c-6.1-14.2-6.2-30.9-10.5-45.8c-2.5,9.2-3.8,18.5-5.2,28c-0.7,4.4-1.1,9-2.2,13.3c-0.4,1.4-0.5,2.6-1.7,3.3
	c-3.3-3.9-2-23.8-2.3-29.9c-0.3-5.5-0.7-11.4-2.4-16.7c-2.3,9.2-2.5,18.9-2.5,28.3c0,3.2,0.6,6.6,0.2,9.8c-0.2,1.7-0.6,2.9-2,3.9
	c-1-0.3-1.2-0.3-1.8-1.3c-1.9-3.3-2.3-33.6-3.2-40.4c-4.9,11.8-4.1,25.4-4.4,38c-0.1,3.4,0.1,7.2-0.7,10.5c-0.3,1.3-0.8,1.6-1.9,2.1
	l-1-0.2c-2.3-4.5-1.5-26.2-2.4-33c-0.2-5.4-0.5-10.7-1.6-16c-0.6,3.4-1.3,6.9-1.5,10.4c-0.4,6,0.6,24.9-1.5,29.1l-1,0.4
	c-1.1-0.7-1.1-0.7-1.4-2c-1.8-7.4-1.3-16.1-1.8-23.7c-0.3-5.4-1.3-10.7-2.3-16c-1.4,9-1.4,38.6-6.1,44l-0.7,0.1
	c-2.3-3.3-0.6-26.5-0.8-32c-0.2-4.5-0.7-8.8-1.7-13.2c-2.9,12.3-1.8,25.2-4.8,37.4c-4.1-12.2,0.6-25-2.7-35.7
	c-1.7,5.5-2.5,31.3,0,36.1c6.3,12.3,44.3,24.4,57.5,27.9c8.5,2.3,20.9,6.1,29.1,1.2c2.4-1.4,3.4-3.6,4-6.2c1.9-9.3-0.1-22-0.2-31.8
	C229.4,761.2,230.7,748.6,229.1,740.8z M109.2,742.3l-0.7,0.5c1.3,6.4,13.3,23,16.8,30.4c1.5-9.3,0.5-21.7,0.4-31.4
	C120.2,741.9,114.7,742,109.2,742.3z M900.3,742.5c0,9.4,1.1,18.7,1.2,28.1c2.1-3.5,4.2-7.1,6.2-10.6c3.2-5.7,6.1-11.5,8.9-17.4
	L900.3,742.5z M853,744.3c-2.2,14.3-0.9,32.9,0.7,47.3l-9.2,3.6c-0.1-5.5-0.2-41-0.9-43.6c-2.3,11-2.2,32.5-2,44.4
	c-2.7,1.2-5.4,2.2-8.3,3c-0.1-2.1-0.4-16.1-1.3-16.8l0.3,0l0.3,0.6l-1,0.6c-0.3,5.3-0.4,10.6-0.4,15.9c-2,0.7-5.2,2.2-7.2,1.4
	c-0.6-0.2-0.5-0.2-0.7-0.8c-0.5-1.8-1-29.1-0.9-32.4c0.2-3.8,1.4-8.8,0.7-12.4c-2.3,5.6-2.7,45.1-3.4,46.4c-0.2,0.5-0.8,0.7-1.2,1.1
	c-1.8,0.3-4,0.4-5.7-0.4c-1-2.5-0.2-49.6-0.3-56.3c-3.9,10.8-4.6,43.4-4.5,56.1l-0.1,1.3c-2,1.3-5.1,1-7.4,1.1
	c0.1-4.1,0.3-8.2-0.1-12.3c-0.4-4-1.3-7.9-1.3-11.9c-0.2-10.9,1.4-21.7-0.2-32.5c-1.3,8-1.3,16.1-2,24.2c-0.7,7.7-2,15.5-2.2,23.2
	c-0.1,2.9,1.7,7.5,0.4,9.8l-1.8,1c1.4,1.4,2.9,2,4.9,2.1c4.2,0.2,8.8-0.7,13-1.3c23.9-3.4,54.7-12.5,72.3-29.6
	c3.3-3.2,4.9-5.8,5.9-10.2c-6.9,8.6-14.6,13.5-23.7,19.5c-1.4-9.2-1.7-18.5-2.8-27.8c-0.4,9.2-0.1,18.5,0.1,27.7
	c-1.9,1.5-3.8,2.8-5.9,4c-1.5-10.8-1.6-21.7-2.4-32.6C854.3,753.3,854.4,748.2,853,744.3z M492.4,746.2c-2.1,18.5-0.9,37.5,0.1,56
	c0.2,4.6,1,9.5,1,14.1c0,1.7-0.3,3-1.1,4.5l-0.8,0.3c-2.1-1.7-2.5-6.7-2.8-9.3c-0.9-8-1-16.1-1.7-24.1c-0.7-7.9-2.1-15.9-3.3-23.8
	c-0.3,8.9,0,18.1,0.4,27c0.2,3.9,1,8.2,0.6,12.1c-0.2,1.8-0.6,3-1.9,4.3c-1.2,0.5-1.7,0.7-3,0.4c-2.2-3.4-1.6-31.7-2.1-38.3
	c-0.5-6.5-1.5-13.3-3.5-19.5c-0.8,5.9-1.7,11.9-1.7,17.9c-0.1,9.3,2.6,55.7-1.8,61.6l-0.7,0.2c-1.7-1-2.3-2.6-2.8-4.4
	c-2.2-8.3-1.3-18.5-1.5-27.1c-0.5-16.3-1-32.1-3.5-48.3c-0.1,0.1-0.1,0.3-0.2,0.4c-4,10.9-2,45.9-2.3,58.8
	c-0.1,3.2,0.4,7.3-0.3,10.3c-0.3,1.4-0.6,1.5-1.7,2.2c-1.5,0-2.4-0.2-3.5-1.3c-1-1-1.5-2.2-1.8-3.6c-1.3-7.2-1-15.1-1.1-22.4
	c-0.1-11.2-0.3-22.8-1.3-34c-0.4-4.4-1.2-8.5-2.5-12.7c-0.3,7-1,14.1-1.1,21.1c-0.1,9.4,3.4,22.7-1.7,31.2l-0.8,0.5
	c-1.7-1.2-2-3.4-2.3-5.4c-2.2-12.4-0.6-24.9-4-37.2c-0.1,7.6-0.8,15-1.1,22.6c-0.2,5.3,0.3,10.9-0.5,16.1c-0.4,2.5-1.1,4.8-2.4,7
	l-0.9,0.6c-1.6-1.2-1.9-3.6-2.2-5.5c-0.7-5.4-0.3-11-0.6-16.5c-0.4-7.6-2.2-18.6-4.3-25.8c-0.4,7.2-1,14.4-1.2,21.6
	c-0.1,4.5,0.2,9.1-0.4,13.6c-0.2,1.4-0.4,3.8-1.5,4.9c-0.7,0.7-1.5,1.1-2.5,1.2c-0.4,0-0.7-0.1-1.1-0.2c-0.9-1.9-0.7-18.5-1-22.2
	c-0.5-7.4-2.3-14.9-3.8-22.2c-0.5,11.4-1.1,22.9-0.6,34.3c0.3,7,1.1,14,1.5,21.1c0.4,5.8,0,11.6,0.9,17.4c3.3,3.3,6.5,6.6,10.4,9.1
	c6.5,0.7,13.2,0.6,19.8,0.9c11.2,0.5,22.2,1,33.4,1.1c27.9,0.4,55.8,0.2,83.7-0.6l23-0.9c5.2-0.2,10.6-0.1,15.7-0.9
	c9.8-15.6,11.6-35.8,11.4-53.9c-0.1-10.9-1-21.6-2.4-32.4c-0.7,4.6-1.3,9.2-1.6,13.8c-0.4,8.1,1,26.9-3.3,33.5l-0.8,0.2
	c-2.2-2.4-3.2-26-4.2-31.2c-1.1-5.7-2.8-10.6-5.6-15.6c0.4,8.5-0.4,16.9,0,25.4c0.3,8.9,2.2,19.3,1.3,28c-0.1,1.3-0.9,3.2-1.9,4
	c-0.4,0.4-0.5,0.4-1,0.6c-1-0.6-1-0.9-1.3-2c-2.4-9.4-1.1-25.6-2.6-36.1c-1-7.5-4.1-14-6.5-21c-0.3,7.2,1.3,47.7-1.9,51.2
	c-0.5,0.6-0.9,0.4-1.6,0.3c-1.9-1.5-2-3.3-2.3-5.6c-1-9-2.2-38.2-5.5-44.6c-4.9,6.8,0.6,47.6-1,58.2c-0.3,1.8-0.7,3.3-2.2,4.5
	c-0.8-0.1-1,0.1-1.5-0.7c-0.7-1-1.1-2.3-1.2-3.5c-1.8-17.3-2.7-35.5-7.4-52.4l-0.2,0.7c-4.3,16-0.5,39-1.5,55.6
	c-0.1,2.3-0.2,4.6-1.7,6.6c-1,0.5-0.9,0.7-2.1,0.6c-1.4-2.7-1.5-7.3-1.8-10.4c-0.5-4.9-0.2-9.8-0.6-14.7c-0.9-10.2-1.8-20.4-3-30.5
	c-0.5-4.4-1.5-8.8-2-13.2l-0.2,0.7c-4.2,11.8-3,23.3-2.6,35.5c0.2,7,0.3,14.1,0.3,21.1c0,3.4,0.8,7.1,0.3,10.4
	c-0.3,1.5-1.3,2.7-2.6,3.3c-1.2,0.5-1.6,0.3-2.7-0.2c-5.7-9.3-0.7-54.3-5.5-60.7l-0.9-0.2c-2.6,2.7-2.5,21.1-2.4,25.6
	c0.1,7.5,2.1,31-1.7,36.6l-0.7,0.1c-3.2-2.9-3.2-10.2-3.4-14.3c-0.7-16.5,0.1-33-4.5-49.1c-0.7,6.4-1.1,12.8-1.3,19.3
	c-0.2,6.7,0.9,27.7-1,32.3c-1.2,0.6-2,0.8-3.2,1.1c-1.3-0.9-1.7-1.7-2-3.3c-0.9-4.5-0.3-9.4-0.5-14c-0.8-14.2-1.6-28.1-5-41.9
	c-1.4,14.1-1.2,28.2-1.2,42.4c0,6,0.5,12.4-0.2,18.3c-0.2,1.8-0.4,3.3-1.9,4.5c-0.7,0.6-1.6,0.8-2.5,1.1l-1-0.3
	c-1.2-2.5-1.2-6-1.4-8.7C496.6,795.1,498.8,756.9,492.4,746.2z M628.3,746.3c-0.8,8.2-0.2,16.7,0.1,24.9c0.6,17.5-0.2,42,11.4,56.4
	c0.7,0.8,1.4,1.6,2.1,2.4c11-1.6,22.5-1.6,33.6-2.5c23.7-1.8,46.8-4.6,70.2-9c10.6-2,22-4.2,32.2-7.8c1.3-6,2.9-12.1,3.3-18.3
	c0.4-6.9-1.1-13.9-1.9-20.7c-1-8.1-1.6-16.2-2.8-24.3c-1.5,13,1.6,31.2-3.3,42.3l-1,0.6c-1.7-1.2-2-5.9-2.4-7.9
	c-2.1-11.7-1.4-23.9-3.3-35.7c-2.9,9.5-3.4,21.4-3.7,31.3c-5.1-10.6-7.2-20.5-9-32c-0.7,7.6-1.7,15.3-1.5,22.9
	c0.1,4,1.3,10.5,0.1,14.1l-0.8,0.5c-2.5-2.5-3.1-16.9-4.3-21.4c-1.5-5.6-4.2-11.1-6.6-16.4c-0.7,4.4-1.4,8.8-1.3,13.2
	c0.1,6.7,3.7,35.4,1.4,39.7l-1,0.3c-1.8-1.5-2-5-2.2-7.3c-1.9-20.1,2.3-24.2-7.5-44.5c-0.4,5.6-0.9,11.2-0.6,16.8
	c0.3,6.9,4.3,23.8,1.6,29.5l-0.9,0.5c-1.1-0.7-1.3-1.4-1.6-2.7c-3.1-16.1-1.3-28.3-7.5-44.6c-0.4,3.9-0.8,7.8-0.9,11.6
	c-0.2,5.3,0.7,33.1-1.5,36.1c-1.1-0.3-1.1-0.5-1.7-1.4c-3.1-5.5-3.4-19.3-3.8-25.9c-0.5-6.8-1.4-13.6-2.3-20.4
	c-2.9,13-2,30.3-1.5,43.7c0.2,4.5,0.8,9.1,0.6,13.7c-0.1,2.2-0.1,5.2-1.6,7l-0.8,0.2c-2.4-2.9-2.4-34.4-3.3-41.1
	c-1-7.6-4.7-14.5-5.7-22c-1,7.5-1.1,14.9-0.8,22.4c0.3,7.9,4.4,33.7,1.1,39.4c-1.2,0.5-1.2,0.5-2.4,0.2c-2.9-2.9-2.5-33.5-3.2-39.9
	c-0.7-6.6-2-14.6-4-20.9c-1.4,6.4-1.8,12.6-1.9,19.1c-0.2,7.5,1.8,35.6-2.3,40.3l-1.1,0.2c-1.8-1.3-2-3.1-2.3-5.2
	c-0.9-7.2-0.6-14.8-0.9-22c-0.5-10.8-1.5-21.3-3.2-32.1c-1.2,14.6-1.4,29-1.4,43.6c0,6.4,0.7,13,0.3,19.4c-0.1,1.9-0.4,3.5-1.5,5.1
	l-0.9,0.2c-1.3-1.4-1.6-3.6-1.8-5.4c-1-8.1-0.9-16.4-1.4-24.6c-0.8-12.5-2.6-27.3-5.6-39.5c-2.4,10.4-2,21.9-1.6,32.5
	c0.2,5.2,1.4,12,0,17.1c-0.6,2.3-2.6,4.1-4.2,5.8c-1.3-5.4-1.3-11-1.6-16.5c-0.8-17-0.7-23-7-39.3c-0.7,8.8-0.8,17.7-0.4,26.5
	c0.2,5,1.9,14.2,1.1,18.7c-0.3,1.5-1,2.7-2.1,3.7c-0.6,0.5-0.9,0.5-1.7,0.7c-2.1-2.3-2.2-28.1-3.1-33.8c-0.8-5.6-2.4-10.8-4.3-16.1
	l-0.1,0.8c-0.7,7.2,2.1,26.4-2.1,31.2c-1.2,0.5-1.4,0.6-2.7,0.4C633,775.9,637.4,754.6,628.3,746.3z M831.5,767.8
	c0,0.2,0.2,0.4,0.4,0.4c0.2,0,0.4-0.2,0.4-0.4c0-0.1-0.1-0.3-0.2-0.3c-0.1-0.1-0.3-0.1-0.4,0C831.5,767.5,831.4,767.6,831.5,767.8z
	 M874.4,775.2c0,0.2,0.2,0.4,0.4,0.4c0.2,0,0.4-0.2,0.4-0.4s-0.2-0.4-0.4-0.4C874.6,774.9,874.4,775,874.4,775.2z M510.6,866.9
	c-19.3,0.4-34.6,16.5-34,35.9c0.6,19.3,16.9,34.5,36.2,33.7c19.1-0.8,34-16.8,33.4-35.9C545.5,881.5,529.6,866.5,510.6,866.9z
	 M230.9,885c4.4,2.9,8.9,7.5,13.8,9.3c5.3,2,11.5,3,17.1,3.5c16.7,1.3,33.9-0.1,50.6-0.9c8.1-0.4,16.8-0.1,24.8-1.5
	c0.1,0,0.2,0,0.4-0.1l0.5-0.1c-21.5-1.9-43.2-2.9-64.7-5.2c-9-1-18-1.8-26.9-2.9C241.4,886.4,236.1,884.7,230.9,885z M787.9,889.1
	c-4.3,1.4-10.1,1.1-14,2.9l0.2,0.4l0.3,0.1c2.8,0.1,5.6,0.1,8.3,0.5c1.9-1,3.7-2.1,5.4-3.3C787.9,889.1,788.1,889.2,787.9,889.1z
	 M769,892.2l0.8,0.7l3.5-0.5C771.8,891.7,770.5,891.8,769,892.2z M650.4,897.2c-3.9,0.3-7.7,0.6-11.6,0.9c-3,2.6-6.6,3.9-10.2,5.3
	c8.8-1.4,17.7-2.3,26.5-3.6c6.8-0.8,14.2-2.2,21-2l-0.1-0.2l1,0.2C674.6,896.7,654.2,897,650.4,897.2z M355.3,898.7
	c-21.3,1.8-42.4,4-63.8,4.3c-11.6,0.2-23.4-0.5-35.1-0.7c2.1,1.5,4.4,3.3,6.7,4.5c7.5,3.7,18.5,2.6,26.8,2.7
	c8.1-0.3,62.1-3.6,65.8-5.9c0.2-0.7,0.1-1.8,0.8-2.2c6.7-4.1,19.2,5.6,26.5-1.1l0.2,0.1l-0.7,1l1-0.8c-0.7-0.6-1.3-0.6-2.2-0.7
	c-4.5-0.5-9.1-0.2-13.6-0.4c-3.8-0.2-8.4-1.3-12-0.9C355.6,898.7,355.4,898.7,355.3,898.7z M624.9,904.2c-7.4,0.3-14.8,0.8-22.2,0.8
	c-2.7,2.4-5.5,5.5-7.1,8.8l0.3,0.7c3.9,1.6,19-1.2,23.9-1.7c17.3-1.6,34.9-2.2,52.3-2.5c11.2-0.5,22.1-0.9,33.1-3.2
	c-8.3-1.1-16.5-0.8-24.8-0.8c-14.6,0-29.8,0.1-44.3-1.4C632.8,904.7,628.1,903.7,624.9,904.2z M411.1,910.3l-134.3,4.8
	c5.4,2.8,10.7,6,16.5,8c4.7-0.9,9-1.4,13.8-1.4c29.3-0.9,58.5-2.3,87.8-4.3c10.7-0.8,22.2-0.8,32.8-2.7c5.6-1,10.9-3.3,16.5-4.5
	C433.3,909.4,421.9,909.5,411.1,910.3z M751.1,913.2c-23.5,3.8-47.4,3.4-71.1,4c-12.1,0.3-24.1,1.4-36.2,1.6l-33,0.4
	c-11.7,0.1-25.1-1.1-36.3,2.9c-9.2,3.3-16.8,9.2-25.4,13.8c-4.7,2.5-10,4.1-15,6c-3.6,1.3-7.1,3-10.9,3.9
	c-12.6,3.2-25.5,0.5-35.9-7.1c-7.6-5.5-12.9-13.1-17.5-21.1c-18.6,3.6-37.8,3.6-56.7,4.8c-23.3,1.5-46.6,3.6-69.9,4.3
	c-13.4,0.4-28.3-0.1-41.4,1.2c2.3,1,4.1,1.9,6.6,2c1.4,0.1,3.3,0.1,4.6,0.6c3.9,1.6,8.2,6.4,11.9,8.7c5.9,3.7,26.8,11.8,33.7,13
	c3.9,0.7,8.7-0.4,12.8-0.5c4.7-0.1,9.5,0.7,14.2,0.5c10.4-0.3,20.8-1.8,31.2-2.3c9.7-0.5,19.2,0,28.8-0.1c4.2,0,13-1.4,16.6,0.7
	c-1.5,2-6.8,2.7-9.3,3c-10.3,1.5-20.9,1.6-31.3,2.1c-16.7,0.9-33.6,2-50.3,1.7c35.6,13.3,100.1,22,138.2,21.5
	c22.6,0,52.9-1.5,75.2-5.4c-0.4,0-0.8,0.1-1.2,0.1l0.4-0.5c-7.3-0.3-38.8-0.5-43.2-4.3c-0.6-0.5-0.4-0.9-0.4-1.6
	c0.8-1.3,1.6-2,3.1-2.4c2.9-0.7,6.5-0.4,9.5-0.5c11.9-0.4,23.4-0.2,35.2-0.1c5.9,0,11.8-0.6,17.7-0.9c5.3-0.2,10.7,0.1,15.9-0.4
	c23-2,39.8-9.5,61.1-15.7c-6.3,0.3-12.5,1.3-18.7,2c-12.3,1.3-24.7,2.7-37,3.7c-16.9,1.4-33.8,0.9-50.7,1.5
	c-5.1,0.2-16.4,2.1-20.7,0.3l0-0.7c2.4-1.8,6.8-2.3,9.7-2.8c10-1.6,20.3-2.1,30.4-3.2c27.3-2.9,54.6-5,82-7.5
	c7.5-0.7,15.2-0.8,22.5-2.4c6.8-1.5,13-5.2,19.3-8c-24.5,2.2-49.1,4-73.7,5.5c-8,0.4-16,0.1-23.9,0.5c-8,0.4-42.9,4.7-48.1,0.8
	c-0.1-0.1-0.2-0.2-0.3-0.3c0.3-1.1,0.4-1.2,1.3-1.7c8.2-4.8,52.9-5.5,65.1-6.3l55.6-4.1c5.8-0.4,11.3-1.8,17.1-2.3
	c7-0.6,14.6,0.3,21.4-1.2c5.9-1.3,11.6-4.7,17.1-7.3L751.1,913.2z"/>
<path d="M127.2,835.8c27.8,32.6,59.5,61.7,94.4,86.5c108.9,77.8,244.4,108.9,376.4,86.3c98.9-17.4,190.3-64,262.5-133.6
	c14-13.4,29.1-27.8,40.3-43.6c1,3,1.5,6.3,2.2,9.3c-17.6,19.4-35.3,38.7-55.1,56c-101,88.8-233,134-367.2,125.7
	c-137.7-9.4-265.9-73.7-355.8-178.5l-1.5-1.9C123.2,839.7,125.7,837.5,127.2,835.8z"/>
<path d="M519.9,921.6c-0.5,0.2-0.9,0.4-1.4,0.5c-4.2,1.3-9.6,0.3-13.4-1.8c-5.5-3.1-9.2-9.1-10.7-15.1c-1.3-5.1-0.7-10.3,2.1-14.8
	c2.9-4.8,7.2-7.5,12.5-8.8c5.1-0.4,9.5,0.1,13.9,2.9c5,3.1,8.4,8.1,9.5,13.9c0.5,2.6,0.8,6.8-0.7,9.1c-1.4-0.2-1.6-1-2.5-2l0.1,0.1
	c-0.4,2.1-0.7,4.2-1.2,6.2C527.2,916.7,524,919,519.9,921.6z M512.6,886.2c-5.7,0.7-9.9,2.5-13.4,7.2c-2.3,3-2.5,5-1.9,8.7
	c1-2,1.2-4,3.7-4.7c1-0.3,1.6,0,2.5,0.3c0.5-1.3,1.1-2.5,1.5-3.8l0.8-1c0.1,0.1,0.3,0.2,0.4,0.2c1.4,0.6,3.6,0.6,5.1,0.7
	c1.3-1.2,2.5-2.6,4.3-2.8c2.3,1.2,4.7,2.8,7.3,3.2c0.2-0.7,0.5-0.8,0.1-1.5c-1.2-2.4-2.9-4.8-5.6-5.7
	C516,886.5,514.3,886.3,512.6,886.2z M523.4,914.2c-2.6,1.6-5.6,2.7-7.9,4.8l0,0.5l5.2-0.9C521.5,917.4,523.1,915.6,523.4,914.2z
	 M503.5,916.4c1,0.7,1.6,1.6,2.9,1.6c0.1,0,0.2-0.1,0.2-0.1C505.6,916.9,505,916.7,503.5,916.4z"/>
<path d="M503.7,894c-0.2,0.1-0.5,0-0.6-0.2c-0.2-0.2-0.2-0.4-0.1-0.7s0.3-0.4,0.5-0.4c0.3,0,0.6,0.2,0.7,0.5
	C504.3,893.6,504,893.9,503.7,894z"/>
<path d="M529.9,925.8c-1.1,1.1-2.3,2.2-3.5,3.1c-5.3,3.9-11.5,5.8-18.1,4.8c-7.5-1.1-14.3-5.2-18.8-11.3c-5.2-7.1-6.9-15.7-5.5-24.3
	c0.3,0.2,0.8,0.2,1,0.6c0.4,0.6,1.6,11.9,4.6,17c3.5,6.1,9,10.4,15.9,12.1c10.9,2.6,16.4-0.6,25.3-6.2l0.5,0.3
	C531.3,923.6,530.8,924.4,529.9,925.8z"/>
<path d="M355.9,941.7c-5.9,0.1-11.8-0.4-17.6-0.9l-0.5-0.7c-0.1,0-0.1,0-0.2,0c-0.3,0.1-0.5,0.2-0.8,0.3l0.1-0.3
	c1.3-0.7,2.6-1.5,4-1.9c6.7-1.6,14.4-1.7,21.3-2.4c20.4-2.2,40.9-4.3,61.4-5.1c10.8-0.5,21.6-0.1,32.4-0.5c7-0.3,14.1-0.2,21.2-0.2
	c-3.8,2.1-7.6,3.7-11.9,4.5c-8.7,1.7-19.6,1.9-28.6,2.7C409.9,939.4,382.7,941.1,355.9,941.7z"/>
</svg>
